<?xml version="1.0" encoding="UTF-8"?>
<svg version="1.1" xmlns="http://www.w3.org/2000/svg" width="1080" height="1080">
<path d="M0 0 C8.70166809 -0.15977765 17.17222819 0.2159821 25.8125 1.25 C26.94469971 1.38494873 28.07689941 1.51989746 29.2434082 1.65893555 C51.45150583 4.45654402 76.55543379 12.15557239 94 27 C94 27.66 94 28.32 94 29 C94.69480469 29.21398437 95.38960937 29.42796875 96.10546875 29.6484375 C99.78244113 31.36535038 102.41864188 33.84836253 105.3125 36.625 C105.88718018 37.16914551 106.46186035 37.71329102 107.05395508 38.27392578 C108.19571184 39.35832963 109.33439657 40.44597875 110.46972656 41.53710938 C111.72188845 42.73413458 112.99484318 43.90937555 114.2734375 45.078125 C118.50717838 49.05265725 121.97120898 53.44059286 125.375 58.125 C126.01924927 59.00454346 126.01924927 59.00454346 126.67651367 59.90185547 C129.56676335 63.99613523 132.44080496 68.20823522 131.625 73.375 C131.41875 73.91125 131.2125 74.4475 131 75 C132.175625 75.4640625 132.175625 75.4640625 133.375 75.9375 C136 77 136 77 138 78 C137.67 77.34 137.34 76.68 137 76 C135.34872056 54.66038873 140.81128777 29.75934898 154.30859375 12.87890625 C161.55010149 4.83464477 167.55867825 0.13123586 178.50512695 -0.44824219 C187.85756253 -0.68352359 195.34598794 1.5642875 204 5 C204.90363281 5.31066406 205.80726563 5.62132812 206.73828125 5.94140625 C213.88839941 8.48443073 219.8461286 12.64365117 226 17 C225.67 18.32 225.34 19.64 225 21 C219.97620156 21.10466247 215.21082683 20.91473072 210.22265625 20.23046875 C195.82303787 18.73736245 183.00830405 21.19170084 171.296875 30.04296875 C158.30804178 41.29862944 147.63809143 56.98042286 144 74 C144.41507813 73.61070312 144.83015625 73.22140625 145.2578125 72.8203125 C149.60001191 68.87781346 154.13861922 65.41619025 158.9375 62.0625 C164.65486157 58.05474164 169.87914728 53.75437003 175 49 C177.65070708 46.64817117 180.32306272 44.32189086 183 42 C183.87205078 41.23429687 183.87205078 41.23429687 184.76171875 40.453125 C188.76773174 37 188.76773174 37 191 37 C191.33 36.01 191.66 35.02 192 34 C196.99563319 29.91266376 196.99563319 29.91266376 200.875 30.25 C201.57625 30.4975 202.2775 30.745 203 31 C202.42845377 47.57484068 192.33440014 61.49769435 180.765625 72.640625 C173.35686749 78.96109045 165.58604864 83.44581887 156.046875 85.52734375 C154.01791556 85.80545753 154.01791556 85.80545753 153 87 C153.78761719 87.27972656 154.57523438 87.55945313 155.38671875 87.84765625 C171.38823844 93.73697296 186.70354243 101.05006922 194.515625 117.1171875 C196.61884312 122.40057278 198.1987537 127.64161856 199.4375 133.1875 C200.40551443 137.46477305 201.77217881 140.53065857 204.1875 144.1875 C206.70618165 148.14271616 207.98663335 151.10229895 207.66015625 155.83203125 C206.10803547 160.92923263 201.8022501 164.53091233 197.78125 167.80859375 C195.31222533 170.84614384 195.59580574 172.89514339 195.75 176.75 C195.78609375 177.92046875 195.8221875 179.0909375 195.859375 180.296875 C195.90578125 181.18890625 195.9521875 182.0809375 196 183 C194.68 183.33 193.36 183.66 192 184 C191.34 181.69 190.68 179.38 190 177 C187.25823898 181.11264153 187.41337862 184.17336837 188 189 C189.82694482 196.2858997 192.82569083 200.7994454 199 205 C199.6084375 205.42796875 200.216875 205.8559375 200.84375 206.296875 C208.22008655 211.19427878 216.40052739 214.8979067 225 217 C224.125 220.875 224.125 220.875 223 222 C211.82176019 223.03328267 200.73078207 222.28972881 190 219 C190.433125 219.89525391 190.433125 219.89525391 190.875 220.80859375 C194.7620037 229.8917656 195.8877123 240.34008044 193.1640625 249.94921875 C192.22781857 252.07864574 191.20615202 254.01469138 190 256 C189.690625 256.72058594 189.38125 257.44117188 189.0625 258.18359375 C188.711875 258.78300781 188.36125 259.38242187 188 260 C184.875 260.75 184.875 260.75 182 261 C180.875 256.25 180.875 256.25 182 254 C182.22467831 252.46331135 182.40796805 250.92031946 182.5625 249.375 C182.64628906 248.55773437 182.73007812 247.74046875 182.81640625 246.8984375 C182.87699219 246.27195312 182.93757813 245.64546875 183 245 C176.61654139 250.67418543 173.94992307 256.13819235 173 264.6875 C172.61210473 272.69538237 174.40946212 280.09803944 178.16015625 287.1953125 C179.3333878 289.7163961 178.72580456 291.38710358 178 294 C175 295 175 295 172.66015625 293.92578125 C171.80292969 293.39339844 170.94570313 292.86101562 170.0625 292.3125 C169.20785156 291.79300781 168.35320312 291.27351563 167.47265625 290.73828125 C165.02714313 289.01908167 163.04248544 287.17517591 161 285 C160.92523437 285.69222656 160.85046875 286.38445312 160.7734375 287.09765625 C158.60315596 303.24710418 151.83455012 318.12652344 138.9921875 328.5703125 C130.13178098 334.92895718 120.72730195 336.346042 110 336 C105.54666746 344.34740937 103.73320094 351.15041867 106.0625 360.625 C106.90630134 364.07691456 107.1163428 366.53933731 106 370 C99.47408437 369.3633253 94.88737291 367.12934379 90.5625 362.25 C89.7890625 361.13625 89.7890625 361.13625 89 360 C86.35987653 361.03719136 85.0867513 361.8832194 83.375 364.1875 C75.94217453 372.98953017 64.30428905 378.6581848 52.9375 379.9375 C47.10262789 380.23039979 41.66363505 379.34901544 36 378 C36.01740234 379.26457031 36.01740234 379.26457031 36.03515625 380.5546875 C36.04869141 382.19824219 36.04869141 382.19824219 36.0625 383.875 C36.07410156 384.96554687 36.08570313 386.05609375 36.09765625 387.1796875 C36 390 36 390 35 392 C35.69730225 392.2695752 36.39460449 392.53915039 37.11303711 392.81689453 C44.95781654 395.95532101 52.33154748 399.71092864 59.69116211 403.82861328 C61.56022515 404.87372798 63.43485433 405.90824592 65.31054688 406.94140625 C71.86799385 410.5721586 78.29090842 414.35257589 84.56420898 418.46142578 C87.15286645 420.09655852 89.79871363 421.5597347 92.5 423 C97.30461367 425.57022843 101.89498826 428.37174185 106.43359375 431.38671875 C108.87742379 433.01484247 108.87742379 433.01484247 111.22265625 433.95703125 C117.25616371 436.68896622 119.08584444 441.68427225 121.30453491 447.57276917 C121.57577179 448.32033981 121.84700867 449.06791046 122.12646484 449.83813477 C122.43189209 450.67817551 122.73731934 451.51821625 123.05200195 452.38371277 C123.36484131 453.24708755 123.67768066 454.11046234 124 455 C124.60200836 456.65545163 125.20405932 458.31088776 125.80615234 459.96630859 C126.44111441 461.714506 127.07604143 463.46271613 127.7109375 465.2109375 C130.15179885 471.92895718 132.59981137 478.64425954 135.0614624 485.35469055 C136.41325182 489.04054327 137.7616824 492.72762101 139.10986328 496.41479492 C139.78877855 498.26915777 140.46912651 500.12299669 141.15087891 501.97631836 C147.77727125 519.99764312 153.70496207 538.15949263 158.75 556.6875 C159.05999435 557.82232315 159.05999435 557.82232315 159.37625122 558.98007202 C165.27658849 580.74839082 169.65800302 602.87739612 174 625 C174.24088348 626.22224274 174.24088348 626.22224274 174.4866333 627.46917725 C174.9245132 629.70117002 175.35637331 631.9342126 175.78515625 634.16796875 C176.02242432 635.40184326 176.25969238 636.63571777 176.50415039 637.90698242 C177 641 177 641 177 645 C57.21 645 -62.58 645 -186 645 C-182.62605833 632.62888053 -182.62605833 632.62888053 -180.94140625 627.62890625 C-180.56185791 626.49662598 -180.18230957 625.3643457 -179.79125977 624.19775391 C-179.38576904 622.99812012 -178.98027832 621.79848633 -178.5625 620.5625 C-178.12459629 619.25971116 -177.68702418 617.95681083 -177.24975586 616.65380859 C-176.55673298 614.58895748 -175.86343088 612.52420367 -175.16896057 610.45983887 C-173.45496428 605.36384837 -171.75528902 600.26322739 -170.0625 595.16015625 C-144.7029981 518.73025828 -144.7029981 518.73025828 -129.44433594 485.18261719 C-127.89864592 481.77666468 -126.37521763 478.36117375 -124.8515625 474.9453125 C-123.79803997 472.60884936 -122.74338141 470.27289808 -121.6875 467.9375 C-120.96832397 466.32258667 -120.96832397 466.32258667 -120.23461914 464.67504883 C-116.92952118 457.44525432 -113.28108173 451.19695143 -107.5625 445.625 C-103.02152 440.97326439 -99.50161205 435.44787585 -96.109375 429.91796875 C-92.83735539 425.39167496 -88.52179173 423.01084588 -83.81298828 420.11816406 C-81.95408591 418.9716824 -80.11673511 417.79466407 -78.27734375 416.6171875 C-64.86502421 408.22123451 -50.10085314 401.73348719 -35 397 C-35.41133042 391.03570884 -36.37033744 387.91760734 -40 383 C-40 382.34 -40 381.68 -40 381 C-44.6531774 378.88182601 -48.71902173 378.64823029 -53.76953125 378.44140625 C-56.55144524 378.06128983 -58.2694767 377.53680857 -60.79296875 376.46484375 C-65.42151314 374.62059348 -69.58386353 374.76326791 -74.5 375 C-81.17035693 375.32120499 -85.84466265 374.71060727 -92 372 C-92 371.34 -92 370.68 -92 370 C-92.66 370 -93.32 370 -94 370 C-94.24234375 370.53109375 -94.4846875 371.0621875 -94.734375 371.609375 C-98.45552094 379.45240568 -98.45552094 379.45240568 -102 382 C-104.25 381.75 -104.25 381.75 -106 381 C-107.04570848 376.87179266 -106.88701834 373.29545148 -106.625 369.0625 C-106.34683561 358.69350583 -110.83778505 350.46999257 -117.4375 342.5625 C-121.92232117 337.85645446 -126.85619234 333.6525184 -132 329.6875 C-137.32787444 325.2963947 -142.15174585 319.29231658 -145 313 C-145.49101019 318.64661714 -144.24416457 322.49804838 -141.97265625 327.66796875 C-141.09346623 329.77590626 -140.48625376 331.77346963 -140 334 C-140.99 334.66 -141.98 335.32 -143 336 C-152.59379294 328.20808696 -159.68020569 319.46889441 -162 307 C-162.12105874 304.42398255 -162.18989369 301.88810751 -162.1875 299.3125 C-162.18814453 298.60222656 -162.18878906 297.89195312 -162.18945312 297.16015625 C-162.1362442 291.8586128 -161.46176706 287.11618473 -160 282 C-160.66 282 -161.32 282 -162 282 C-162 282.66 -162 283.32 -162 284 C-171.30749928 289.1976944 -180.41530151 289.73817637 -191 289 C-193.9296875 287.98828125 -193.9296875 287.98828125 -196 287 C-196 285.68 -196 284.36 -196 283 C-195.16597656 282.78085937 -194.33195312 282.56171875 -193.47265625 282.3359375 C-185.04076019 279.9599393 -177.3538163 277.47175506 -171.9375 270.25 C-169.35561573 261.29946786 -171.54250365 254.42764735 -175 246 C-179.62 246.33 -184.24 246.66 -189 247 C-190.125 241.375 -190.125 241.375 -188 238 C-188.969375 237.855625 -189.93875 237.71125 -190.9375 237.5625 C-194 237 -194 237 -195 236 C-196.67454547 235.89073328 -198.35326174 235.84414701 -200.03125 235.82421875 C-201.07023437 235.80037109 -202.10921875 235.77652344 -203.1796875 235.75195312 C-205.36179181 235.70959463 -207.54413706 235.67801934 -209.7265625 235.65820312 C-216.69528422 235.47413984 -221.88386243 234.3637025 -228 231 C-228.66 230.67 -229.32 230.34 -230 230 C-229.505 228.02 -229.505 228.02 -229 226 C-227.7934375 225.90203125 -226.586875 225.8040625 -225.34375 225.703125 C-223.72908825 225.55292391 -222.11450895 225.4018347 -220.5 225.25 C-219.70851563 225.188125 -218.91703125 225.12625 -218.1015625 225.0625 C-211.54441272 224.41753445 -206.13614067 222.64690273 -201.046875 218.3515625 C-193.4098132 208.18414889 -192.44156067 195.33599678 -191.21337891 183.07958984 C-190.87853523 179.81620491 -190.48419141 176.56603778 -190.0625 173.3125 C-189.92972656 172.23613281 -189.79695313 171.15976562 -189.66015625 170.05078125 C-188.92968154 166.67503718 -187.65958205 164.01618863 -186 161 C-194.7407685 168.57705671 -199.05904703 178.31306283 -203 189 C-204.32 189 -205.64 189 -207 189 C-209.45157035 176.44677832 -206.28112565 162.17197878 -199.3515625 151.44921875 C-188.64608207 137.05143996 -174.09286567 130.80322997 -157 128 C-159.9779082 127.00736393 -162.29891696 126.76116402 -165.41796875 126.5703125 C-166.49965332 126.4990918 -167.58133789 126.42787109 -168.69580078 126.35449219 C-170.42419189 126.24089355 -170.42419189 126.24089355 -172.1875 126.125 C-185.50002115 125.15264515 -198.05427755 123.64818341 -210.6875 119.125 C-211.34766113 118.89264648 -212.00782227 118.66029297 -212.68798828 118.42089844 C-217.23614797 116.67133455 -219.83634727 114.56893903 -223 111 C-219.97768774 109.26214882 -217.76192109 108.74415068 -214.2890625 108.69140625 C-213.3810791 108.66860596 -212.4730957 108.64580566 -211.53759766 108.62231445 C-210.57644043 108.60257568 -209.6152832 108.58283691 -208.625 108.5625 C-182.65104831 107.65643192 -160.36383926 97.9151236 -140 82 C-139.20335937 81.40703125 -138.40671875 80.8140625 -137.5859375 80.203125 C-126.7747765 71.83535333 -114.58832756 61.38249134 -107 50 C-106.34 50 -105.68 50 -105 50 C-104.7525 49.443125 -104.505 48.88625 -104.25 48.3125 C-101.01566592 42.32898195 -97.32833826 39.26235486 -91 37 C-87.35478355 36.14992976 -83.70611356 35.51776586 -80 35 C-80.556875 34.53851563 -81.11375 34.07703125 -81.6875 33.6015625 C-87.41047013 28.70996979 -93.10238878 23.51017895 -97 17 C-97.21484375 14.19921875 -97.21484375 14.19921875 -97 12 C-92.55771886 12.70321825 -88.54009395 14.24251278 -84.375 15.875 C-65.2688181 23.17832007 -47.36434505 24.67597316 -27.2421875 21.14428711 C-14.35013986 18.94093328 -1.05717123 18.62982247 12 19 C13.56234375 19.04253906 13.56234375 19.04253906 15.15625 19.0859375 C23.82346028 19.52771278 31.72841116 21.54026058 40 24 C40 23.34 40 22.68 40 22 C39.31035156 21.74476563 38.62070312 21.48953125 37.91015625 21.2265625 C35.24166207 20.10185488 32.76282478 18.80178957 30.24047852 17.38476562 C20.54786179 11.95637527 10.36895358 7.94162819 0 4 C0 2.68 0 1.36 0 0 Z " fill="#030303" transform="translate(565,263)"/>
<path d="M0 0 C0.66 0 1.32 0 2 0 C1.125 4.75 1.125 4.75 0 7 C-0.66 7 -1.32 7 -2 7 C-2.165 7.70125 -2.33 8.4025 -2.5 9.125 C-4.66107267 13.26705595 -8.04087159 15.5997784 -12 18 C-12.66 18 -13.32 18 -14 18 C-14 18.66 -14 19.32 -14 20 C-13.4225 20.268125 -12.845 20.53625 -12.25 20.8125 C-10 22 -10 22 -8.20703125 23.4453125 C-5.69524524 25.21467681 -3.34515394 26.08537004 -0.4375 27.0625 C2.79970754 28.15621055 5.13381994 29.08921329 8 31 C10.91560392 31.19786534 13.71167149 31.28412218 16.625 31.25 C17.44097656 31.24323242 18.25695312 31.23646484 19.09765625 31.22949219 C24.61870963 31.13453007 29.74534935 30.8126508 35 29 C35.85078125 28.70867188 36.7015625 28.41734375 37.578125 28.1171875 C42.41500626 26.32103569 46.05635062 24.3802709 50 21 C52.8125 19.75 52.8125 19.75 55 19 C53.48134786 14.70111387 53.48134786 14.70111387 51 11 C50.95919217 9.00041636 50.95745644 6.99954746 51 5 C54.46941546 5.45822468 57.67395049 5.89131683 61 7 C61 7.66 61 8.32 61 9 C62.61455078 9.05800781 62.61455078 9.05800781 64.26171875 9.1171875 C70.44201587 9.89737016 75.46482816 13.10750492 80.8125 16.125 C82.33713867 16.9603125 82.33713867 16.9603125 83.89257812 17.8125 C89.90134757 21.13666309 95.73457944 24.66473458 101.48510742 28.41748047 C104.10209041 30.06424134 106.77201831 31.54570744 109.5 33 C114.30461367 35.57022843 118.89498826 38.37174185 123.43359375 41.38671875 C125.87742379 43.01484247 125.87742379 43.01484247 128.22265625 43.95703125 C134.25616371 46.68896622 136.08584444 51.68427225 138.30453491 57.57276917 C138.57577179 58.32033981 138.84700867 59.06791046 139.12646484 59.83813477 C139.58460571 61.09819588 139.58460571 61.09819588 140.05200195 62.38371277 C140.36484131 63.24708755 140.67768066 64.11046234 141 65 C141.60200836 66.65545163 142.20405932 68.31088776 142.80615234 69.96630859 C143.44111441 71.714506 144.07604143 73.46271613 144.7109375 75.2109375 C147.15179885 81.92895718 149.59981137 88.64425954 152.0614624 95.35469055 C153.41325182 99.04054327 154.7616824 102.72762101 156.10986328 106.41479492 C156.78877855 108.26915777 157.46912651 110.12299669 158.15087891 111.97631836 C164.77727125 129.99764312 170.70496207 148.15949263 175.75 166.6875 C176.05999435 167.82232315 176.05999435 167.82232315 176.37625122 168.98007202 C182.27658849 190.74839082 186.65800302 212.87739612 191 235 C191.24088348 236.22224274 191.24088348 236.22224274 191.4866333 237.46917725 C191.9245132 239.70117002 192.35637331 241.9342126 192.78515625 244.16796875 C193.02242432 245.40184326 193.25969238 246.63571777 193.50415039 247.90698242 C194 251 194 251 194 255 C74.21 255 -45.58 255 -169 255 C-165.62605833 242.62888053 -165.62605833 242.62888053 -163.94140625 237.62890625 C-163.56185791 236.49662598 -163.18230957 235.3643457 -162.79125977 234.19775391 C-162.38576904 232.99812012 -161.98027832 231.79848633 -161.5625 230.5625 C-161.12459629 229.25971116 -160.68702418 227.95681083 -160.24975586 226.65380859 C-159.55673298 224.58895748 -158.86343088 222.52420367 -158.16896057 220.45983887 C-156.45496428 215.36384837 -154.75528902 210.26322739 -153.0625 205.16015625 C-127.7029981 128.73025828 -127.7029981 128.73025828 -112.44433594 95.18261719 C-110.89864592 91.77666468 -109.37521763 88.36117375 -107.8515625 84.9453125 C-106.79803997 82.60884936 -105.74338141 80.27289808 -104.6875 77.9375 C-104.20804932 76.86089111 -103.72859863 75.78428223 -103.23461914 74.67504883 C-99.92952118 67.44525432 -96.28108173 61.19695143 -90.5625 55.625 C-86.02152 50.97326439 -82.50161205 45.44787585 -79.109375 39.91796875 C-75.8416112 35.39756216 -71.5330084 33.01632646 -66.83056641 30.12695312 C-65.58247872 29.35859186 -64.34014763 28.58081965 -63.10302734 27.79492188 C-48.60430663 18.59235665 -32.94294888 11.30594124 -16 8 C-16 7.34 -16 6.68 -16 6 C-16 4.33333333 -16 2.66666667 -16 1 C-15.01 1.33 -14.02 1.66 -13 2 C-13 3.32 -13 4.64 -13 6 C-11.39272673 5.77082032 -9.78912584 5.51579198 -8.1875 5.25 C-7.29417969 5.11078125 -6.40085937 4.9715625 -5.48046875 4.828125 C-2.47551322 3.82489575 -1.73755208 2.56719406 0 0 Z " fill="#010101" transform="translate(548,653)"/>
<path d="M0 0 C0.66 0 1.32 0 2 0 C1.71125 1.216875 1.4225 2.43375 1.125 3.6875 C0.77211978 5.88694667 0.77211978 5.88694667 1 8 C3.37313891 10.44771542 3.37313891 10.44771542 5.30444336 11.75976562 C8.39878171 14.02315495 10.48025253 16.46001504 12 20 C12.3153545 24.0541945 11.84415915 27.91635964 11.3125 31.9375 C11.19455078 33.00291016 11.07660156 34.06832031 10.95507812 35.16601562 C10.66187808 37.78136001 10.34298913 40.39079857 10 43 C8.68 42.34 7.36 41.68 6 41 C6 39.68 6 38.36 6 37 C5.38125 36.938125 4.7625 36.87625 4.125 36.8125 C2 36 2 36 0.75 33.4375 C0.5025 32.633125 0.255 31.82875 0 31 C-0.99 31 -1.98 31 -3 31 C-2.43906147 35.57643753 -1.21477371 39.0859292 0.875 43.1875 C1.38804687 44.21230469 1.90109375 45.23710938 2.4296875 46.29296875 C3.82840363 48.97698412 3.82840363 48.97698412 5.6953125 50.67578125 C7 52 7 52 7 55 C7.58394531 55.28875 8.16789063 55.5775 8.76953125 55.875 C10.13196865 56.56218384 11.48614896 57.26649707 12.82421875 58 C13.43910156 58.33 14.05398438 58.66 14.6875 59 C15.28949219 59.33 15.89148438 59.66 16.51171875 60 C25.09753903 63.45050234 33.93776777 63.40913645 43.0625 63.625 C44.4186424 63.66326971 45.77476282 63.70232633 47.13085938 63.7421875 C50.42044104 63.83584107 53.71002612 63.9215686 57 64 C57 63.34 57 62.68 57 62 C58.05058594 61.74605469 59.10117187 61.49210938 60.18359375 61.23046875 C76.45739044 57.93221857 76.45739044 57.93221857 90 49 C91.17210223 46.57797962 91.56935107 44.69155583 92 42 C90.741875 42.268125 89.48375 42.53625 88.1875 42.8125 C87.47980469 42.96332031 86.77210938 43.11414063 86.04296875 43.26953125 C83.66255839 44.12065312 82.76605686 45.21667119 81 47 C77.09530871 49.19210739 73.04354712 51.07826211 69 53 C68.319375 53.33644531 67.63875 53.67289063 66.9375 54.01953125 C58.82058434 57.83373005 49.75513384 57.12768714 41 57.0625 C39.26556641 57.05573242 39.26556641 57.05573242 37.49609375 57.04882812 C34.66400775 57.03712529 31.83203189 57.02072996 29 57 C28.94054199 55.65421875 28.94054199 55.65421875 28.87988281 54.28125 C28.72266956 50.91810237 28.54927432 47.55657024 28.36523438 44.19482422 C28.28918033 42.74625248 28.21938703 41.29733673 28.15625 39.84814453 C27.72982843 28.33465189 27.72982843 28.33465189 23 18 C19.91398245 16.41150153 19.91398245 16.41150153 17 16 C17 14.68 17 13.36 17 12 C22.60318657 11.91156188 28.00225446 12.20072588 33.5625 12.875 C34.27857422 12.95363281 34.99464844 13.03226562 35.73242188 13.11328125 C39.10219953 13.51189007 42.11478896 14.0350744 45.375 15.03125 C50.07643945 16.28766916 54.59162751 16.45754004 59.4375 16.625 C60.82098633 16.68300781 60.82098633 16.68300781 62.23242188 16.7421875 C64.48809143 16.83568676 66.74376916 16.9214391 69 17 C69 18.65 69 20.3 69 22 C70.11375 21.835 71.2275 21.67 72.375 21.5 C84.875 19.9375 84.875 19.9375 89 22 C89 22.99 89 23.98 89 25 C87.41676312 25.027193 85.83338938 25.04648306 84.25 25.0625 C82.92742187 25.07990234 82.92742187 25.07990234 81.578125 25.09765625 C79.2181162 25.00826198 77.25501476 24.66912821 75 24 C76.22473384 28.49069074 77.6182879 30.84373538 81 34 C81 34.66 81 35.32 81 36 C86.28 36.66 91.56 37.32 97 38 C97.10759131 42.43814169 97.18713377 46.87369517 97.25 51.3125 C97.28351563 52.57513672 97.31703125 53.83777344 97.3515625 55.13867188 C97.36445312 56.34716797 97.37734375 57.55566406 97.390625 58.80078125 C97.41157227 59.91622314 97.43251953 61.03166504 97.45410156 62.1809082 C97 65 97 65 95.10058594 66.88745117 C93 68 93 68 91 68 C91 68.66 91 69.32 91 70 C86.545 70.495 86.545 70.495 82 71 C81.67 71.99 81.34 72.98 81 74 C81.763125 74.144375 82.52625 74.28875 83.3125 74.4375 C86 75 86 75 89 76 C89 76.66 89 77.32 89 78 C92.63 78.99 96.26 79.98 100 81 C98.625 83.5 98.625 83.5 97 86 C96.34 86 95.68 86 95 86 C94.814375 86.9590625 94.814375 86.9590625 94.625 87.9375 C94.41875 88.618125 94.2125 89.29875 94 90 C93.01 90.495 93.01 90.495 92 91 C91.36121415 92.73052894 90.78784566 94.48548879 90.25 96.25 C88.42787775 101.47431362 86.53252167 103.71169997 82 107 C80.84710356 108.26682973 79.72378627 109.56096175 78.625 110.875 C69.98628139 120.93145142 60.04675635 126.97541225 47.8125 131.8125 C47.05211426 132.11478516 46.29172852 132.41707031 45.50830078 132.72851562 C40.9810587 134.45449581 36.82218449 135.50820105 32 136 C32.0721875 137.22074219 32.144375 138.44148437 32.21875 139.69921875 C32.7581313 149.14752534 33.15295984 158.53348523 33 168 C33.99 168 34.98 168 36 168 C36 163.38 36 158.76 36 154 C37.65 153.67 39.3 153.34 41 153 C41 153.66 41 154.32 41 155 C40.01 155 39.02 155 38 155 C38.01160156 155.84304688 38.02320313 156.68609375 38.03515625 157.5546875 C38.04417969 158.65039062 38.05320312 159.74609375 38.0625 160.875 C38.07410156 161.96554687 38.08570313 163.05609375 38.09765625 164.1796875 C38 167 38 167 37 169 C37.83144531 169.32613281 38.66289063 169.65226563 39.51953125 169.98828125 C40.60621094 170.42527344 41.69289063 170.86226562 42.8125 171.3125 C43.89144531 171.74175781 44.97039062 172.17101562 46.08203125 172.61328125 C48.69144777 173.85336541 50.17408984 174.81531451 52 177 C50.02 176.67 48.04 176.34 46 176 C46 175.34 46 174.68 46 174 C42.7 173.34 39.4 172.68 36 172 C37.00193437 175.79303725 37.81024227 178.71536341 40 182 C40 183.32 40 184.64 40 186 C38.1015625 187.6328125 38.1015625 187.6328125 35.625 189.125 C33.12378373 190.65749124 31.07896656 191.92103344 29 194 C27.10725811 194.75086317 25.1853258 195.42942701 23.25 196.0625 C22.22390625 196.40410156 21.1978125 196.74570312 20.140625 197.09765625 C10.21024211 199.95078865 -3.35553602 201.47472512 -12.8125 196.625 C-14.21079128 195.7539333 -15.60674934 194.87910653 -17 194 C-17.83273437 193.66742187 -18.66546875 193.33484375 -19.5234375 192.9921875 C-21.8936316 192.04261447 -23.74218389 190.97944158 -25.8125 189.5 C-26.41707031 189.0771875 -27.02164063 188.654375 -27.64453125 188.21875 C-28.09183594 187.8165625 -28.53914062 187.414375 -29 187 C-29 186.34 -29 185.68 -29 185 C-27.13671875 183.66796875 -27.13671875 183.66796875 -24.6875 182.1875 C-21.00299465 179.83703969 -18.98467054 177.96934108 -17 174 C-16.34 174 -15.68 174 -15 174 C-14.34 172.35 -13.68 170.7 -13 169 C-12.34 169 -11.68 169 -11 169 C-10.91855057 166.29105233 -10.85929386 163.58458737 -10.8125 160.875 C-10.78736328 160.11445312 -10.76222656 159.35390625 -10.73632812 158.5703125 C-10.67158035 153.56315134 -11.40008705 150.413958 -14 146 C-14.33 145.01 -14.66 144.02 -15 143 C-15.79470703 143.02094727 -16.58941406 143.04189453 -17.40820312 143.06347656 C-46.52899859 143.72952834 -46.52899859 143.72952834 -60 139 C-60.98226562 138.68804688 -61.96453125 138.37609375 -62.9765625 138.0546875 C-78.13480998 132.97347215 -91.19101083 124.78513136 -102 113 C-102.54398437 112.41347656 -103.08796875 111.82695313 -103.6484375 111.22265625 C-107.31662389 107.11689433 -110.18644677 102.7191868 -113 98 C-113.598125 97.113125 -114.19625 96.22625 -114.8125 95.3125 C-116.17939375 92.65065427 -116.32815974 90.95343762 -116 88 C-115.505 87.505 -115.505 87.505 -115 87 C-114.76807135 85.48530552 -114.58784762 83.96245438 -114.4375 82.4375 C-114.35371094 81.61121094 -114.26992188 80.78492188 -114.18359375 79.93359375 C-114.12300781 79.29550781 -114.06242187 78.65742187 -114 78 C-111.525 77.505 -111.525 77.505 -109 77 C-109.47711713 72.70594581 -111.97409268 70.89142255 -115 68 C-120.87755102 62.12244898 -120.87755102 62.12244898 -121.375 57.5625 C-121.25125 56.716875 -121.1275 55.87125 -121 55 C-117.83482001 56.39743046 -115.76150666 58.07666427 -113.3125 60.5 C-109.63351077 63.83321957 -106.65477072 64.99260672 -101.78515625 65.7109375 C-100 66 -100 66 -99 67 C-89.33587936 67.77846772 -81.31718897 67.62026861 -72.515625 63.09375 C-69.79481898 61.91079086 -67.93321193 61.78897756 -65 62 C-64.7525 61.4225 -64.505 60.845 -64.25 60.25 C-63 58 -63 58 -61.0625 56.1875 C-58.37747132 53.33974231 -57.40063567 50.64165273 -56 47 C-56.928125 47.474375 -57.85625 47.94875 -58.8125 48.4375 C-62 50 -62 50 -65 51 C-65 51.66 -65 52.32 -65 53 C-65.99 53 -66.98 53 -68 53 C-68.18433594 52.26136719 -68.36867188 51.52273438 -68.55859375 50.76171875 C-71.10668515 41.84906126 -75.46151593 35.53848407 -82 29 C-85.48618881 29.09308537 -85.48618881 29.09308537 -89 30 C-92.29192701 34.59165224 -91.36951475 40.63116806 -91 46 C-90.11680706 49.15020361 -90.11680706 49.15020361 -89 52 C-88.54870057 54.99047862 -88.25443831 57.98691477 -88 61 C-98.17085881 62.08115428 -105.5466751 59.25160437 -113.5703125 52.99609375 C-117.61412395 49.28339579 -117.61412395 49.28339579 -119 47 C-118.74873723 43.47673763 -117.47767703 40.67265951 -116 37.5 C-113.48301564 31.46288534 -113.20308013 25.47825627 -113 19 C-111.95658447 18.87939209 -111.95658447 18.87939209 -110.89208984 18.75634766 C-107.71891976 18.38580089 -104.54699219 18.00549272 -101.375 17.625 C-100.28058594 17.49867188 -99.18617188 17.37234375 -98.05859375 17.2421875 C-92.75688955 16.59955669 -88.06170192 15.7255802 -83 14 C-80.21371267 13.63869813 -77.43076815 13.49676932 -74.625 13.375 C-73.88894531 13.33632813 -73.15289062 13.29765625 -72.39453125 13.2578125 C-70.59672594 13.16442002 -68.79839892 13.0811629 -67 13 C-66.84144531 13.59425781 -66.68289063 14.18851562 -66.51953125 14.80078125 C-64.64531936 21.45889309 -62.34204009 27.92256076 -59 34 C-58.01 34.495 -58.01 34.495 -57 35 C-57.24447876 33.91295776 -57.24447876 33.91295776 -57.49389648 32.80395508 C-57.9699033 30.16674415 -58.11490366 27.81006659 -58.09765625 25.13671875 C-58.09443359 24.25048828 -58.09121094 23.36425781 -58.08789062 22.45117188 C-58.07532227 21.0831543 -58.07532227 21.0831543 -58.0625 19.6875 C-58.05798828 18.75615234 -58.05347656 17.82480469 -58.04882812 16.86523438 C-58.03709234 14.57675627 -58.02067363 12.28841192 -58 10 C-56.2508503 9.66223316 -54.50063855 9.32996329 -52.75 9 C-51.77546875 8.814375 -50.8009375 8.62875 -49.796875 8.4375 C-47 8 -47 8 -43 8 C-42.90203125 9.22074219 -42.8040625 10.44148438 -42.703125 11.69921875 C-40.82157706 33.21421509 -34.33850392 50.70624555 -20 67 C-17.95730988 69.62316681 -15.93314354 72.25893927 -13.921875 74.90625 C-11.82325034 77.19255654 -9.72144067 78.5360526 -7 80 C-7.309375 79.071875 -7.61875 78.14375 -7.9375 77.1875 C-14.51830163 54.01867948 -11.05059893 24.03624088 -2 2 C-1.34 1.34 -0.68 0.68 0 0 Z " fill="#F8F8F8" transform="translate(563,486)"/>
<path d="M0 0 C0.90363281 0.31066406 1.80726563 0.62132812 2.73828125 0.94140625 C9.88839941 3.48443073 15.8461286 7.64365117 22 12 C21.67 13.32 21.34 14.64 21 16 C15.97620156 16.10466247 11.21082683 15.91473072 6.22265625 15.23046875 C-8.17696213 13.73736245 -20.99169595 16.19170084 -32.703125 25.04296875 C-45.92928807 36.50429104 -55.9254837 51.88703153 -60 69 C-57.36 66.69 -54.72 64.38 -52 62 C-51.34 62.33 -50.68 62.66 -50 63 C-50.68707031 63.61488281 -51.37414062 64.22976563 -52.08203125 64.86328125 C-53.43361328 66.07564453 -53.43361328 66.07564453 -54.8125 67.3125 C-55.70582031 68.11300781 -56.59914063 68.91351563 -57.51953125 69.73828125 C-58.94571059 71.0386873 -60.34866597 72.36817176 -61.67578125 73.76953125 C-63 75 -63 75 -65.375 75.375 C-68.52095927 74.92557725 -70.38504925 73.76685862 -73 72 C-73.66 71.67 -74.32 71.34 -75 71 C-75 67.37 -75 63.74 -75 60 C-72.81956172 62.18043828 -72.43759775 63.02433527 -72 66 C-72.4375 68.25 -72.4375 68.25 -73 70 C-71.824375 70.4640625 -71.824375 70.4640625 -70.625 70.9375 C-68 72 -68 72 -66 73 C-66.33 72.34 -66.66 71.68 -67 71 C-68.65127944 49.66038873 -63.18871223 24.75934898 -49.69140625 7.87890625 C-35.12760279 -8.29936041 -19.1254832 -7.59297089 0 0 Z " fill="#141414" transform="translate(769,268)"/>
<path d="M0 0 C0.66 0 1.32 0 2 0 C2.18175781 0.78503906 2.36351562 1.57007813 2.55078125 2.37890625 C4.17249939 9.33582995 4.17249939 9.33582995 6.6875 16 C8 19 8 19 8 23 C8.62003906 23.08894531 9.24007812 23.17789062 9.87890625 23.26953125 C12 24 12 24 13.08984375 25.63671875 C13.36957031 26.31347656 13.64929688 26.99023438 13.9375 27.6875 C16.81128194 33.93630493 21.06034963 38.2210497 26.296875 42.546875 C28 44 28 44 30.75 46.8125 C32.88171271 49.20200031 32.88171271 49.20200031 36 50 C36 50.99 36 51.98 36 53 C24.77096251 52.66629903 13.69401197 51.43743747 2.5625 50 C1.85970917 49.91036987 1.15691833 49.82073975 0.43283081 49.72839355 C-11.63948068 48.18025966 -11.63948068 48.18025966 -14 47 C-15.37206521 46.78308608 -16.75139272 46.61076837 -18.1328125 46.46484375 C-18.93847656 46.37783203 -19.74414062 46.29082031 -20.57421875 46.20117188 C-21.41597656 46.11416016 -22.25773438 46.02714844 -23.125 45.9375 C-23.97449219 45.84662109 -24.82398438 45.75574219 -25.69921875 45.66210938 C-27.7991145 45.4379632 -29.89951293 45.21853552 -32 45 C-32 42.03 -32 39.06 -32 36 C-30.83082031 35.95101562 -29.66164063 35.90203125 -28.45703125 35.8515625 C-26.90883196 35.77649829 -25.36065599 35.70095205 -23.8125 35.625 C-23.04357422 35.5940625 -22.27464844 35.563125 -21.48242188 35.53125 C-17.26102289 35.31383889 -13.85927672 34.90256928 -10 33 C-10 32.34 -10 31.68 -10 31 C-9.4225 30.649375 -8.845 30.29875 -8.25 29.9375 C-0.03979956 22.86760517 -0.77104565 9.97286679 0 0 Z " fill="#F5F5F5" transform="translate(608,445)"/>
<path d="M0 0 C2.09765625 1.7578125 2.09765625 1.7578125 4.0625 4.125 C5.08923828 5.36056641 5.08923828 5.36056641 6.13671875 6.62109375 C10.7400288 12.49827577 14 17.35514725 14 25 C14.99 25 15.98 25 17 25 C17 24.34 17 23.68 17 23 C22.29411765 19 22.29411765 19 26 19 C25.34730498 22.52455309 23.98326997 25.02509505 22 28 C21.38125 29.010625 20.7625 30.02125 20.125 31.0625 C16.78050796 35.0655997 11.9223333 35.85862198 7.05859375 37.140625 C4.10877959 37.8316249 4.10877959 37.8316249 2.12109375 39.09375 C-1.26736071 40.54148745 -4.75306275 40.28733956 -8.375 40.25 C-9.48875 40.26160156 -9.48875 40.26160156 -10.625 40.2734375 C-15.14441692 40.25746783 -18.7429621 39.67990733 -23 38 C-23.804375 37.7525 -24.60875 37.505 -25.4375 37.25 C-29.14381992 35.44203906 -31.97538942 32.77183332 -35 30 C-34.690625 29.401875 -34.38125 28.80375 -34.0625 28.1875 C-32.89790296 25.91043228 -32.89790296 25.91043228 -32 23 C-31.195625 23.7425 -30.39125 24.485 -29.5625 25.25 C-22.4213768 31.12307328 -15.09360192 32.66005226 -6 33 C-6.4746275 30.6865641 -6.95482279 28.37426981 -7.4375 26.0625 C-7.70433594 24.77472656 -7.97117187 23.48695313 -8.24609375 22.16015625 C-8.67181616 19.15361121 -8.67181616 19.15361121 -10 18 C-10.15252309 16.08759516 -10.22192773 14.16827201 -10.25 12.25 C-10.27578125 11.20328125 -10.3015625 10.1565625 -10.328125 9.078125 C-9.9589595 5.61500101 -9.05955369 3.7793977 -7 1 C-4.40394134 -0.29802933 -2.88242477 -0.35120183 0 0 Z " fill="#0C0D0D" transform="translate(481,514)"/>
<path d="M0 0 C0.63149942 10.67910627 1.17291697 21.2983611 1 32 C1.99 32 2.98 32 4 32 C4 27.38 4 22.76 4 18 C5.65 17.67 7.3 17.34 9 17 C9 17.66 9 18.32 9 19 C8.01 19 7.02 19 6 19 C6.01160156 19.84304688 6.02320313 20.68609375 6.03515625 21.5546875 C6.04417969 22.65039062 6.05320312 23.74609375 6.0625 24.875 C6.07410156 25.96554687 6.08570313 27.05609375 6.09765625 28.1796875 C6 31 6 31 5 33 C5.83144531 33.32613281 6.66289063 33.65226563 7.51953125 33.98828125 C8.60621094 34.42527344 9.69289063 34.86226562 10.8125 35.3125 C11.89144531 35.74175781 12.97039062 36.17101562 14.08203125 36.61328125 C16.69144777 37.85336541 18.17408984 38.81531451 20 41 C18.02 40.67 16.04 40.34 14 40 C14 39.34 14 38.68 14 38 C10.7 37.34 7.4 36.68 4 36 C4.99 39.96 4.99 39.96 6 44 C4.35 43.34 2.7 42.68 1 42 C0.505 38.535 0.505 38.535 0 35 C-1.32 34.67 -2.64 34.34 -4 34 C-4 33.34 -4 32.68 -4 32 C-4.66 32 -5.32 32 -6 32 C-6.061875 31.38125 -6.12375 30.7625 -6.1875 30.125 C-6.828919 27.72238859 -6.828919 27.72238859 -9.5625 26.75 C-10.366875 26.5025 -11.17125 26.255 -12 26 C-12 25.34 -12 24.68 -12 24 C-13.11375 24.12375 -13.11375 24.12375 -14.25 24.25 C-17.84492439 23.92318869 -18.49343537 22.50656463 -21 20 C-23.31847874 19.2833793 -25.65319703 18.61757973 -28 18 C-28.78375 17.525625 -29.5675 17.05125 -30.375 16.5625 C-34.03810809 14.38207852 -37.94033782 13.24708577 -42 12 C-42.33 13.32 -42.66 14.64 -43 16 C-44.52448631 13.0173094 -45.93940067 10.181798 -47 7 C-51.62 7 -56.24 7 -61 7 C-61 6.67 -61 6.34 -61 6 C-59.99138916 5.97812622 -59.99138916 5.97812622 -58.96240234 5.95581055 C-40.75079684 5.51837341 -22.96702282 4.19249514 -5.12890625 0.38256836 C-3 0 -3 0 0 0 Z " fill="#CCCBCB" transform="translate(595,622)"/>
<path d="M0 0 C0.66 0 1.32 0 2 0 C1.71125 1.216875 1.4225 2.43375 1.125 3.6875 C0.77211978 5.88694667 0.77211978 5.88694667 1 8 C3.37313891 10.44771542 3.37313891 10.44771542 5.30444336 11.75976562 C8.39878171 14.02315495 10.48025253 16.46001504 12 20 C12.3153545 24.0541945 11.84415915 27.91635964 11.3125 31.9375 C11.19455078 33.00291016 11.07660156 34.06832031 10.95507812 35.16601562 C10.66187808 37.78136001 10.34298913 40.39079857 10 43 C8.68 42.34 7.36 41.68 6 41 C6 39.68 6 38.36 6 37 C5.071875 36.9071875 5.071875 36.9071875 4.125 36.8125 C2 36 2 36 0.75 33.4375 C0.5025 32.633125 0.255 31.82875 0 31 C-0.99 31 -1.98 31 -3 31 C-2.32584613 36.2584002 -0.75734451 41.02638346 1 46 C-1.55028983 44.72485508 -1.93081711 43.59658703 -3 41 C-3 40.01 -3 39.02 -3 38 C-3.66 38 -4.32 38 -5 38 C-5.33 36.02 -5.66 34.04 -6 32 C-6.66 32 -7.32 32 -8 32 C-8.33 33.32 -8.66 34.64 -9 36 C-8.96983196 24.92832829 -8.28373884 8.28373884 0 0 Z " fill="#EBEBEB" transform="translate(563,486)"/>
<path d="M0 0 C0.66 0 1.32 0 2 0 C2.05534912 0.68513672 2.11069824 1.37027344 2.16772461 2.07617188 C2.42252783 5.21759591 2.67999435 8.35879638 2.9375 11.5 C3.02451172 12.57765625 3.11152344 13.6553125 3.20117188 14.765625 C3.6758813 20.53246547 4.22747923 26.26525124 5 32 C0.48842699 33.65958945 -3.79782834 34.51919916 -8.5625 35.125 C-10.48255859 35.37636719 -10.48255859 35.37636719 -12.44140625 35.6328125 C-15.3366793 35.93155637 -18.0954144 36.07805028 -21 36 C-19.81041881 32.61426893 -18.80003098 30.28150672 -16 28 C-14.824375 27.4740625 -14.824375 27.4740625 -13.625 26.9375 C-7.05113952 22.08536488 -4.7655921 12.06715854 -2.015625 4.6875 C-1 2 -1 2 0 0 Z " fill="#EFEFEF" transform="translate(488,460)"/>
<path d="M0 0 C0.66 0 1.32 0 2 0 C2.33 1.32 2.66 2.64 3 4 C3.66 4 4.32 4 5 4 C5 3.01 5 2.02 5 1 C6.99954746 0.95745644 9.00041636 0.95919217 11 1 C11.33 1.33 11.66 1.66 12 2 C12.763125 2.144375 13.52625 2.28875 14.3125 2.4375 C16.86191887 2.9710993 18.73762364 3.74312425 21 5 C21 6.98 21 8.96 21 11 C19.02 11.99 19.02 11.99 17 13 C17 13.66 17 14.32 17 15 C14.69 15 12.38 15 10 15 C10 13.68 10 12.36 10 11 C9.34 11 8.68 11 8 11 C7.67 12.32 7.34 13.64 7 15 C7.66 15.33 8.32 15.66 9 16 C6.48300155 18.51699845 4.42445854 19.10964078 1 20 C-1.375 19.625 -1.375 19.625 -3 19 C2.75 16 2.75 16 5 16 C4.58866958 10.03570884 3.62966256 6.91760734 0 2 C0 1.34 0 0.68 0 0 Z " fill="#222222" transform="translate(525,644)"/>
<path d="M0 0 C-0.1953125 2.359375 -0.1953125 2.359375 -1 5 C-3.1796875 6.328125 -3.1796875 6.328125 -5.875 7.25 C-6.75929688 7.56453125 -7.64359375 7.8790625 -8.5546875 8.203125 C-9.36164062 8.46609375 -10.16859375 8.7290625 -11 9 C-11.99 9.33 -12.98 9.66 -14 10 C-15.70016844 10.08178114 -17.40336297 10.10749501 -19.10546875 10.09765625 C-20.08837891 10.09443359 -21.07128906 10.09121094 -22.08398438 10.08789062 C-23.10814453 10.07951172 -24.13230469 10.07113281 -25.1875 10.0625 C-26.22326172 10.05798828 -27.25902344 10.05347656 -28.32617188 10.04882812 C-30.88417266 10.0370401 -33.44205733 10.02058515 -36 10 C-36.5625 8.0625 -36.5625 8.0625 -37 6 C-35.39779069 4.39779069 -33.58936593 4.72269869 -31.37109375 4.5703125 C-30.41783203 4.49683594 -29.46457031 4.42335938 -28.48242188 4.34765625 C-26.48023217 4.20124854 -24.47762224 4.06045977 -22.47460938 3.92578125 C-15.32600852 3.36078801 -6.3874225 -1.91622675 0 0 Z " fill="#0F0F0F" transform="translate(571,589)"/>
<path d="M0 0 C-0.81404297 0.31130859 -0.81404297 0.31130859 -1.64453125 0.62890625 C-3.92981115 1.61301777 -5.95558034 2.57510145 -8 4 C-8.61875 5.794375 -8.61875 5.794375 -9.25 7.625 C-11 11 -11 11 -13.27734375 11.9296875 C-21.65272407 13.5710372 -30.57592625 13.28485258 -39 12 C-39.33 11.34 -39.66 10.68 -40 10 C-34.94997778 8.96409801 -30.12583611 8.89748328 -25 9 C-25 8.67 -25 8.34 -25 8 C-23.02 7.67 -21.04 7.34 -19 7 C-19.85754883 6.98018066 -20.71509766 6.96036133 -21.59863281 6.93994141 C-24.78947642 6.86170479 -27.9799474 6.77500657 -31.17041016 6.68261719 C-32.54955243 6.64440662 -33.92879167 6.60953998 -35.30810547 6.578125 C-37.29416967 6.53230376 -39.27991679 6.47333737 -41.265625 6.4140625 C-43.05661621 6.36693115 -43.05661621 6.36693115 -44.88378906 6.31884766 C-47.80774539 6.0196713 -49.52727611 5.52538162 -52 4 C-51.34 3.67 -50.68 3.34 -50 3 C-49.01 3.33 -48.02 3.66 -47 4 C-44.79040747 4.15109093 -42.57699953 4.24873801 -40.36328125 4.31640625 C-39.06455078 4.35830078 -37.76582031 4.40019531 -36.42773438 4.44335938 C-35.05599239 4.48316987 -33.68424756 4.52288216 -32.3125 4.5625 C-30.92902355 4.60570835 -29.54555973 4.64932339 -28.16210938 4.69335938 C-24.77484281 4.79958028 -21.38750201 4.90162358 -18 5 C-18 4.34 -18 3.68 -18 3 C-15.37700199 2.30391966 -12.7520793 1.61784618 -10.125 0.9375 C-9.37863281 0.73833984 -8.63226562 0.53917969 -7.86328125 0.33398438 C-2.2265625 -1.11328125 -2.2265625 -1.11328125 0 0 Z " fill="#C7C7C7" transform="translate(638,545)"/>
<path d="M0 0 C2.76276177 0.52268466 5.3260876 1.10869587 8 2 C10.2825699 2.15145099 12.56887706 2.24886979 14.85546875 2.31640625 C15.51710526 2.33718735 16.17874176 2.35796844 16.86042786 2.37937927 C18.96934852 2.44464727 21.07839135 2.50365344 23.1875 2.5625 C24.61915315 2.60570689 26.05079404 2.64932188 27.48242188 2.69335938 C30.98815154 2.80030506 34.49401786 2.90163641 38 3 C36.70049806 5.59900387 35.68956853 5.96200185 33 7 C30.37890625 7.16015625 30.37890625 7.16015625 27.5625 7.0625 C23.6705739 6.93800167 20.92614671 7.21477066 17 8 C22.28 8.33 27.56 8.66 33 9 C33 9.33 33 9.66 33 10 C12.07783939 10.67652495 12.07783939 10.67652495 3 7 C2.67 6.01 2.34 5.02 2 4 C1.01 4 0.02 4 -1 4 C-0.67 2.68 -0.34 1.36 0 0 Z " fill="#EBEBEB" transform="translate(582,548)"/>
<path d="M0 0 C3.99772003 3.99772003 4.26826594 9.78713901 4.37939453 15.2043457 C4.37721924 16.27881958 4.37721924 16.27881958 4.375 17.375 C4.3747583 18.49491333 4.3747583 18.49491333 4.37451172 19.63745117 C4.2530795 25.50518359 3.06575976 29.9538042 0 35 C-0.309375 35.72058594 -0.61875 36.44117188 -0.9375 37.18359375 C-1.288125 37.78300781 -1.63875 38.38242187 -2 39 C-5.125 39.75 -5.125 39.75 -8 40 C-9.125 35.25 -9.125 35.25 -8 33 C-7.77532169 31.46331135 -7.59203195 29.92031946 -7.4375 28.375 C-7.35371094 27.55773437 -7.26992188 26.74046875 -7.18359375 25.8984375 C-7.12300781 25.27195312 -7.06242188 24.64546875 -7 24 C-11.33034194 27.84919283 -13.6560756 31.72289646 -16 37 C-16.33 37 -16.66 37 -17 37 C-17.3125 33.8125 -17.3125 33.8125 -17 30 C-14.625 27.25 -14.625 27.25 -12 25 C-11.34 24.01 -10.68 23.02 -10 22 C-8.35 22.33 -6.7 22.66 -5 23 C-4.972807 24.58323688 -4.95351694 26.16661062 -4.9375 27.75 C-4.92589844 28.63171875 -4.91429687 29.5134375 -4.90234375 30.421875 C-4.99173802 32.7818838 -5.33087179 34.74498524 -6 37 C-2.65738598 35.88579533 -2.39402316 35.58479237 -0.83203125 32.6328125 C1.60222857 27.43029248 1.48404076 22.52440902 1.3125 16.875 C1.30283203 15.91207031 1.29316406 14.94914062 1.28320312 13.95703125 C1.20813246 9.21125974 0.96579902 4.66410259 0 0 Z " fill="#686868" transform="translate(755,484)"/>
<path d="M0 0 C0.05391993 1.79133978 0.09275571 3.58313899 0.125 5.375 C0.14820313 6.37273437 0.17140625 7.37046875 0.1953125 8.3984375 C0 11 0 11 -2 13 C-4.6015625 12.9765625 -4.6015625 12.9765625 -7.625 12.625 C-8.62789062 12.51414062 -9.63078125 12.40328125 -10.6640625 12.2890625 C-11.82035156 12.14597656 -11.82035156 12.14597656 -13 12 C-12.51262626 4.56755051 -12.51262626 4.56755051 -10.25 2.0625 C-6.7876823 0.42751664 -3.80980248 0 0 0 Z " fill="#F4F4F4" transform="translate(521,477)"/>
<path d="M0 0 C0.66 0.33 1.32 0.66 2 1 C1.375 3.8125 1.375 3.8125 0 7 C-3.0625 8.6875 -3.0625 8.6875 -6 10 C-6.33 10.99 -6.66 11.98 -7 13 C-13.46107293 15.80364415 -20.05319697 16.34164605 -27 16 C-24.09907498 14.06604999 -23.10325263 13.69868059 -19.8125 13.375 C-18.554375 13.25125 -17.29625 13.1275 -16 13 C-15.773125 12.071875 -15.54625 11.14375 -15.3125 10.1875 C-13.71032823 6.29651141 -12.76133906 5.7606268 -9 4 C-7.88238281 3.45472656 -7.88238281 3.45472656 -6.7421875 2.8984375 C-2.14012177 0.72318457 -2.14012177 0.72318457 0 0 Z " fill="#EAEAEA" transform="translate(643,542)"/>
<path d="M0 0 C0.33 0 0.66 0 1 0 C0.67 6.93 0.34 13.86 0 21 C-5 19 -5 19 -8 17 C-7.34 19.97 -6.68 22.94 -6 26 C-9.16335426 23.12114441 -11.03029414 20.44458588 -12.8125 16.5625 C-13.47185547 15.17224609 -13.47185547 15.17224609 -14.14453125 13.75390625 C-15.09499901 10.69418128 -14.89805501 9.03575652 -14 6 C-12.02 6.495 -12.02 6.495 -10 7 C-9.67 8.65 -9.34 10.3 -9 12 C-8.38125 12.061875 -7.7625 12.12375 -7.125 12.1875 C-5 13 -5 13 -3.875 15.5 C-3.58625 16.325 -3.2975 17.15 -3 18 C-2.34 18.33 -1.68 18.66 -1 19 C-1.01160156 17.96359375 -1.02320313 16.9271875 -1.03515625 15.859375 C-1.04453837 14.48958514 -1.05363812 13.11979332 -1.0625 11.75 C-1.07506836 10.72712891 -1.07506836 10.72712891 -1.08789062 9.68359375 C-1.10428392 6.30657446 -1.05628768 3.22708361 0 0 Z " fill="#404040" transform="translate(574,510)"/>
<path d="M0 0 C0 0.66 0 1.32 0 2 C-0.99 2 -1.98 2 -3 2 C-2.98839844 2.84304688 -2.97679687 3.68609375 -2.96484375 4.5546875 C-2.95130859 6.19824219 -2.95130859 6.19824219 -2.9375 7.875 C-2.92589844 8.96554687 -2.91429687 10.05609375 -2.90234375 11.1796875 C-3 14 -3 14 -4 16 C-3.16855469 16.32613281 -2.33710937 16.65226563 -1.48046875 16.98828125 C-0.39378906 17.42527344 0.69289063 17.86226562 1.8125 18.3125 C2.89144531 18.74175781 3.97039063 19.17101562 5.08203125 19.61328125 C7.69144777 20.85336541 9.17408984 21.81531451 11 24 C9.02 23.67 7.04 23.34 5 23 C5 22.34 5 21.68 5 21 C1.7 20.34 -1.6 19.68 -5 19 C-4.34 21.64 -3.68 24.28 -3 27 C-5.475 26.01 -5.475 26.01 -8 25 C-8.33 22.69 -8.66 20.38 -9 18 C-9.99 17.67 -10.98 17.34 -12 17 C-11.34 17 -10.68 17 -10 17 C-10 16.34 -10 15.68 -10 15 C-8.35 15 -6.7 15 -5 15 C-5 10.38 -5 5.76 -5 1 C-3 0 -3 0 0 0 Z " fill="#919191" transform="translate(604,639)"/>
<path d="M0 0 C0 1.32 0 2.64 0 4 C-2.97 4 -5.94 4 -9 4 C-9 4.66 -9 5.32 -9 6 C-10.0725 6.433125 -11.145 6.86625 -12.25 7.3125 C-15.16272646 8.55321513 -17.56036166 9.95070379 -20 12 C-20 11.01 -20 10.02 -20 9 C-23.92496041 12.82573388 -27.68179791 16.61997324 -31 21 C-30.29241484 14.42293793 -25.70891173 11.20410378 -21 7 C-14.90075629 2.17143206 -7.84258869 -0.60327605 0 0 Z " fill="#747474" transform="translate(399,415)"/>
<path d="M0 0 C-3.35346124 2.23564082 -4.98451337 2.36114181 -8.9375 2.625 C-9.97777344 2.69976563 -11.01804687 2.77453125 -12.08984375 2.8515625 C-14.39076934 2.96892515 -16.69608321 3 -19 3 C-23.45333254 11.34740937 -25.26679906 18.15041867 -22.9375 27.625 C-22.09369866 31.07691456 -21.8836572 33.53933731 -23 37 C-27.3890815 36.48964169 -30.33708062 35.47785723 -34 33 C-30.38970831 33 -27.44193324 33.96092582 -24 35 C-24.33 33.9275 -24.66 32.855 -25 31.75 C-27.53871368 21.28240517 -25.83687502 11.93889313 -22 2 C-20.11294867 0.11294867 -16.90566156 0.60532282 -14.375 0.4375 C-13.16585937 0.35371094 -11.95671875 0.26992188 -10.7109375 0.18359375 C-7.13326064 0.0065929 -3.58133677 -0.03222282 0 0 Z " fill="#7F7F7F" transform="translate(694,596)"/>
<path d="M0 0 C9.06581341 -0.20273483 17.82153356 0.36268117 26.8125 1.5 C27.99392578 1.64308594 29.17535156 1.78617187 30.39257812 1.93359375 C33.26263746 2.28218395 36.13164212 2.63772168 39 3 C39 3.33 39 3.66 39 4 C31.75881079 4.09390591 24.65960007 4.07261914 17.46484375 3.22265625 C12.97851428 2.81739352 8.50102235 2.94229459 4 3 C7.63 4.65 11.26 6.3 15 8 C11.01508155 9.32830615 9.59951452 8.23204404 5.8125 6.5625 C4.72582031 6.08941406 3.63914062 5.61632812 2.51953125 5.12890625 C1.68808594 4.75636719 0.85664062 4.38382812 0 4 C0 2.68 0 1.36 0 0 Z " fill="#747474" transform="translate(565,263)"/>
<path d="M0 0 C1.18613892 0.00785522 1.18613892 0.00785522 2.39624023 0.01586914 C3.67724609 0.02070312 3.67724609 0.02070312 4.98413086 0.02563477 C5.88196289 0.03401367 6.77979492 0.04239258 7.70483398 0.05102539 C8.6065332 0.05553711 9.50823242 0.06004883 10.43725586 0.06469727 C12.67234712 0.07652315 14.90730835 0.09300319 17.14233398 0.11352539 C17.47233398 1.43352539 17.80233398 2.75352539 18.14233398 4.11352539 C11.48595556 5.35192138 4.89514039 5.20491676 -1.85766602 5.11352539 C-2.42016602 3.17602539 -2.42016602 3.17602539 -2.85766602 1.11352539 C-1.85766602 0.11352539 -1.85766602 0.11352539 0 0 Z " fill="#080808" transform="translate(536.857666015625,593.886474609375)"/>
<path d="M0 0 C4.43001532 0.63388837 8.66573408 1.66700059 12.98144531 2.81567383 C21.7118056 5.13039194 29.93343667 6.81800694 39 7 C39 7.66 39 8.32 39 9 C40.25296875 8.97679687 41.5059375 8.95359375 42.796875 8.9296875 C44.4479107 8.91092573 46.09895285 8.89272597 47.75 8.875 C48.575 8.85824219 49.4 8.84148437 50.25 8.82421875 C51.04921875 8.81777344 51.8484375 8.81132812 52.671875 8.8046875 C53.4050293 8.79421387 54.13818359 8.78374023 54.89355469 8.77294922 C57.29896076 9.03222456 58.91251494 9.80774075 61 11 C60.34 11.33 59.68 11.66 59 12 C58.01 11.67 57.02 11.34 56 11 C54.19748811 10.81816532 52.39030952 10.68095916 50.58203125 10.5703125 C49.50018555 10.49901123 48.41833984 10.42770996 47.30371094 10.35424805 C45.57556152 10.24077026 45.57556152 10.24077026 43.8125 10.125 C28.35139456 9.00384753 14.46067487 6.71648554 0 1 C0 0.67 0 0.34 0 0 Z " fill="#747474" transform="translate(349,379)"/>
<path d="M0 0 C3.96 0 7.92 0 12 0 C12 1.65 12 3.3 12 5 C13.11375 4.835 14.2275 4.67 15.375 4.5 C27.875 2.9375 27.875 2.9375 32 5 C32 5.99 32 6.98 32 8 C22.73741007 8.1618705 22.73741007 8.1618705 19.4375 7.4375 C15.58306903 6.74567906 11.85183201 7.45453359 8 8 C8 6.35 8 4.7 8 3 C8.66 3 9.32 3 10 3 C10 2.34 10 1.68 10 1 C6.7 1 3.4 1 0 1 C0 0.67 0 0.34 0 0 Z " fill="#E6E6E6" transform="translate(620,503)"/>
<path d="M0 0 C0.33 0 0.66 0 1 0 C1 10.56 1 21.12 1 32 C-3.34862851 31.1302743 -6.16270693 30.0525056 -10 28 C-10 24.37 -10 20.74 -10 17 C-7.81956172 19.18043828 -7.43759775 20.02433527 -7 23 C-7.4375 25.25 -7.4375 25.25 -8 27 C-7.21625 27.309375 -6.4325 27.61875 -5.625 27.9375 C-3 29 -3 29 -1 30 C-1.33 29.34 -1.66 28.68 -2 28 C-2.57869537 18.47171339 -1.59550693 9.37360322 0 0 Z " fill="#828282" transform="translate(704,311)"/>
<path d="M0 0 C5 1 5 1 8 2 C8.25 4.8125 8.25 4.8125 8 8 C6.375 9.875 6.375 9.875 4 11 C0.75 11.1875 0.75 11.1875 -2 11 C-1.34 7.37 -0.68 3.74 0 0 Z " fill="#C8C8C8" transform="translate(538,647)"/>
<path d="M0 0 C0.6875 1.6875 0.6875 1.6875 1 4 C0.05988318 5.70116376 -0.94895617 7.36504293 -2 9 C-4.20061181 14.3479019 -4.62886132 19.67347195 -5.125 25.375 C-5.21136719 26.30183594 -5.29773438 27.22867187 -5.38671875 28.18359375 C-5.59748885 30.45522701 -5.80173181 32.72724727 -6 35 C-5.34 35 -4.68 35 -4 35 C-3.938125 33.824375 -3.87625 32.64875 -3.8125 31.4375 C-3.23325089 26.51388254 -1.08603895 23.79820179 2 20 C2 23.37515259 1.26583441 25.84699339 0.25 29.0625 C-0.23726563 30.65771484 -0.23726563 30.65771484 -0.734375 32.28515625 C-2 35 -2 35 -4.140625 36.37109375 C-4.75421875 36.57863281 -5.3678125 36.78617187 -6 37 C-8.52687411 34.47312589 -7.9958749 29.3248293 -8 26 C-5.37177914 5.37177914 -5.37177914 5.37177914 0 0 Z " fill="#868686" transform="translate(365,416)"/>
<path d="M0 0 C0 0.66 0 1.32 0 2 C-0.99 2 -1.98 2 -3 2 C-3.2475 2.5775 -3.495 3.155 -3.75 3.75 C-5.17199401 6.30958921 -6.90438527 7.96987323 -9 10 C-9.99 11.485 -9.99 11.485 -11 13 C-11.33 12.67 -11.66 12.34 -12 12 C-14.11781405 14.47078305 -15.81582948 16.46064348 -16.875 19.5625 C-18.44645273 22.96731424 -20.82943574 24.13901663 -24 26 C-22.0468393 21.80360522 -19.40439152 18.21423159 -16.71875 14.4609375 C-14.89193771 11.92065455 -14.89193771 11.92065455 -13.125 8.75 C-10.22302253 4.99449974 -5.03089315 0 0 0 Z " fill="#494949" transform="translate(482,684)"/>
<path d="M0 0 C3.04344294 4.5651644 6.20803868 9.45152616 5.75 15.0625 C5.5025 15.701875 5.255 16.34125 5 17 C2 18 2 18 -0.04296875 17.00390625 C-0.75066406 16.52824219 -1.45835937 16.05257812 -2.1875 15.5625 C-2.90292969 15.08941406 -3.61835937 14.61632812 -4.35546875 14.12890625 C-4.89816406 13.75636719 -5.44085937 13.38382813 -6 13 C-4.75 11.5 -4.75 11.5 -3 10 C-1.68 10 -0.36 10 1 10 C0.67 6.7 0.34 3.4 0 0 Z " fill="#535353" transform="translate(738,540)"/>
<path d="M0 0 C-1 1 -1 1 -4.81640625 1.09765625 C-6.39846682 1.09098089 -7.98051159 1.07901875 -9.5625 1.0625 C-10.36880859 1.05798828 -11.17511719 1.05347656 -12.00585938 1.04882812 C-14.00393756 1.03700518 -16.00197783 1.01906914 -18 1 C-18 3.97 -18 6.94 -18 10 C-16.72382812 10.06058594 -15.44765625 10.12117188 -14.1328125 10.18359375 C-12.46352984 10.26799568 -10.79425963 10.35264386 -9.125 10.4375 C-8.28324219 10.47681641 -7.44148437 10.51613281 -6.57421875 10.55664062 C-5.76855469 10.59853516 -4.96289062 10.64042969 -4.1328125 10.68359375 C-3.01737061 10.73858032 -3.01737061 10.73858032 -1.87939453 10.79467773 C0 11 0 11 2 12 C3.70363822 12.22622081 5.41328701 12.40888473 7.125 12.5625 C8.03507813 12.64628906 8.94515625 12.73007812 9.8828125 12.81640625 C10.93082031 12.90728516 10.93082031 12.90728516 12 13 C12 13.33 12 13.66 12 14 C3.37733139 14.19043931 -4.62890791 14.32826553 -13 12 C-14.99708656 11.64963394 -16.99598989 11.30830925 -19 11 C-19 7.37 -19 3.74 -19 0 C-16.20865148 -0.19425873 -13.41716313 -0.38069517 -10.625 -0.5625 C-9.8309375 -0.61857422 -9.036875 -0.67464844 -8.21875 -0.73242188 C-2.2265625 -1.11328125 -2.2265625 -1.11328125 0 0 Z " fill="#686868" transform="translate(594,480)"/>
<path d="M0 0 C2.64 0 5.28 0 8 0 C7.17757812 0.44214844 6.35515625 0.88429688 5.5078125 1.33984375 C2.65958121 4.36109843 2.64512333 4.92157532 2.6171875 8.87890625 C2.67820422 10.77440378 2.76505879 12.66921005 2.875 14.5625 C2.96937888 16.45900537 3.05069529 18.35621851 3.1171875 20.25390625 C3.16472168 21.09252197 3.21225586 21.9311377 3.26123047 22.79516602 C2.93993654 25.50694683 2.08631191 26.31805179 0 28 C-0.99 27.01 -1.98 26.02 -3 25 C-2.67 24.34 -2.34 23.68 -2 23 C-0.515 23.99 -0.515 23.99 1 25 C0.83701416 24.27530518 0.67402832 23.55061035 0.50610352 22.80395508 C0.0300967 20.16674415 -0.11490366 17.81006659 -0.09765625 15.13671875 C-0.09443359 14.25048828 -0.09121094 13.36425781 -0.08789062 12.45117188 C-0.07951172 11.53916016 -0.07113281 10.62714844 -0.0625 9.6875 C-0.05798828 8.75615234 -0.05347656 7.82480469 -0.04882812 6.86523438 C-0.03709234 4.57675627 -0.02067363 2.28841192 0 0 Z " fill="#BDBDBD" transform="translate(505,496)"/>
<path d="M0 0 C0.33 0 0.66 0 1 0 C0.97679687 1.12277344 0.95359375 2.24554687 0.9296875 3.40234375 C0.36446857 16.78338416 0.36446857 16.78338416 5 29 C5.66 29 6.32 29 7 29 C7 32.33333333 7 35.66666667 7 39 C-0.6731907 28.14228352 -1.72299569 17.94440359 -1 5 C-0.71025825 3.32520491 -0.39641592 1.65279863 0 0 Z " fill="#7B7B7B" transform="translate(404,549)"/>
<path d="M0 0 C0.43649825 3.75388496 0.39064835 5.46611391 -1.875 8.5625 C-5.90588679 11.7065917 -10.19561489 14.21429934 -15 16 C-15.66 15.67 -16.32 15.34 -17 15 C-15.56839732 13.99157547 -14.12948547 12.99352109 -12.6875 12 C-11.88699219 11.443125 -11.08648438 10.88625 -10.26171875 10.3125 C-8 9 -8 9 -5 9 C-5.33 8.195625 -5.66 7.39125 -6 6.5625 C-7 4 -7 4 -7 3 C-7.66 2.67 -8.32 2.34 -9 2 C-5.86501708 0.14223235 -3.62528568 -0.20140476 0 0 Z " fill="#525252" transform="translate(655,528)"/>
<path d="M0 0 C0.625 1.875 0.625 1.875 1 4 C0.34 4.66 -0.32 5.32 -1 6 C-1 5.01 -1 4.02 -1 3 C-1.66 3 -2.32 3 -3 3 C-3 3.66 -3 4.32 -3 5 C-12.29701951 10.19184206 -21.42258094 10.76013121 -32 10 C-33.35378276 9.37590509 -34.69253945 8.71607899 -36 8 C-35.40574219 7.98018066 -34.81148438 7.96036133 -34.19921875 7.93994141 C-31.46575581 7.84376007 -28.73296197 7.73446443 -26 7.625 C-24.59814453 7.57859375 -24.59814453 7.57859375 -23.16796875 7.53125 C-16.35834416 7.24553149 -10.48076871 6.16025624 -4 4 C-3.67 3.01 -3.34 2.02 -3 1 C-2.01 0.67 -1.02 0.34 0 0 Z " fill="#818181" transform="translate(406,542)"/>
<path d="M0 0 C0.99 0 1.98 0 3 0 C3.25394531 0.74765625 3.50789063 1.4953125 3.76953125 2.265625 C4.11371094 3.25046875 4.45789063 4.2353125 4.8125 5.25 C5.14894531 6.22453125 5.48539062 7.1990625 5.83203125 8.203125 C6.94132042 10.85948302 8.1693283 12.79689939 10 15 C9.67 15.66 9.34 16.32 9 17 C7.02 14.03 5.04 11.06 3 8 C2.91051442 12.47427924 3.14256349 16.60563789 4 21 C1.8571767 19.32300785 1.0576697 18.20446529 0.3125 15.5625 C-0.14265755 10.37370389 -0.0758007 5.20498139 0 0 Z " fill="#767676" transform="translate(417,568)"/>
<path d="M0 0 C0.99 0 1.98 0 3 0 C3 9.9 3 19.8 3 30 C2.67 30 2.34 30 2 30 C0.67084979 22.02509872 0.91198641 14.05813281 1 6 C0.34 6 -0.32 6 -1 6 C-1.33 6.66 -1.66 7.32 -2 8 C-1.33333333 5.33333333 -0.66666667 2.66666667 0 0 Z " fill="#323232" transform="translate(489,454)"/>
<path d="M0 0 C0.33 0.99 0.66 1.98 1 3 C2.79158489 3.02696365 4.58328473 3.04637917 6.375 3.0625 C7.87160156 3.07990234 7.87160156 3.07990234 9.3984375 3.09765625 C11.98432453 3.18006602 11.98432453 3.18006602 14 2 C14.75475351 10.35619957 15.13605482 18.60995285 15 27 C14.67 27 14.34 27 14 27 C12.84683274 20.65758005 12.90492937 14.43311296 13 8 C12.34 8 11.68 8 11 8 C11 7.01 11 6.02 11 5 C7.37 5 3.74 5 0 5 C0 3.35 0 1.7 0 0 Z " fill="#686868" transform="translate(507,486)"/>
<path d="M0 0 C0.66 0 1.32 0 2 0 C2.4125 0.94875 2.825 1.8975 3.25 2.875 C5.0040131 6.00716624 5.70851757 6.86500606 9 8 C8.67 8.99 8.34 9.98 8 11 C7.65772583 12.33106622 7.32248257 13.66400079 7 15 C7.66 15.33 8.32 15.66 9 16 C6.48300155 18.51699845 4.42445854 19.10964078 1 20 C-1.375 19.625 -1.375 19.625 -3 19 C2.75 16 2.75 16 5 16 C4.58866958 10.03570884 3.62966256 6.91760734 0 2 C0 1.34 0 0.68 0 0 Z " fill="#575757" transform="translate(525,644)"/>
<path d="M0 0 C1.60367292 2.54700993 2.06442578 3.61401546 1.55859375 6.64453125 C1.37425781 7.42183594 1.18992187 8.19914062 1 9 C-2.22823979 9.50610903 -5.45772365 10.00379907 -8.6875 10.5 C-9.59951172 10.64308594 -10.51152344 10.78617187 -11.45117188 10.93359375 C-12.78051758 11.13662109 -12.78051758 11.13662109 -14.13671875 11.34375 C-15.35427856 11.53227539 -15.35427856 11.53227539 -16.59643555 11.72460938 C-19.08533405 12.00977723 -21.49706689 12.04674739 -24 12 C-22.73058503 8.08597051 -21.48832306 6.20927127 -18 4 C-18.33 5.65 -18.66 7.3 -19 9 C-12.73 8.67 -6.46 8.34 0 8 C0 5.36 0 2.72 0 0 Z " fill="#B1B1B1" transform="translate(491,484)"/>
<path d="M0 0 C-0.93972656 0.30744141 -0.93972656 0.30744141 -1.8984375 0.62109375 C-2.71570313 0.89050781 -3.53296875 1.15992188 -4.375 1.4375 C-5.18710937 1.70433594 -5.99921875 1.97117187 -6.8359375 2.24609375 C-10.14354152 3.33030291 -10.14354152 3.33030291 -12.125 6.0625 C-12.558125 7.0215625 -12.558125 7.0215625 -13 8 C-16 3.25 -16 3.25 -16 1 C-20.62 1 -25.24 1 -30 1 C-30 0.67 -30 0.34 -30 0 C-25.75038214 -0.19694005 -21.50029973 -0.38092074 -17.25 -0.5625 C-16.0434375 -0.61857422 -14.836875 -0.67464844 -13.59375 -0.73242188 C-11.85351562 -0.80493164 -11.85351562 -0.80493164 -10.078125 -0.87890625 C-9.00981445 -0.9260376 -7.94150391 -0.97316895 -6.84082031 -1.02172852 C-4.33305593 -1.00254744 -2.37796573 -0.74499559 0 0 Z " fill="#C9C9C9" transform="translate(564,628)"/>
<path d="M0 0 C1.11375 0.3403125 1.11375 0.3403125 2.25 0.6875 C1.85983685 8.49076294 -0.50773658 14.61673365 -3.75 21.6875 C-4.84658936 18.39773192 -4.54953138 16.97446233 -3.75 13.6875 C-3.09 13.6875 -2.43 13.6875 -1.75 13.6875 C-1.811875 12.388125 -1.811875 12.388125 -1.875 11.0625 C-1.74542279 7.56391532 -0.98980344 4.94198403 0.25 1.6875 C-0.74 2.3475 -1.73 3.0075 -2.75 3.6875 C-4.9375 3.3125 -4.9375 3.3125 -6.75 2.6875 C-4.29511132 0.41445492 -3.41240272 -0.38777304 0 0 Z " fill="#6F6F6F" transform="translate(765.75,293.3125)"/>
<path d="M0 0 C2.38736912 4.44826583 3.42122673 9.06291813 4.625 13.9375 C4.85445312 14.83146484 5.08390625 15.72542969 5.3203125 16.64648438 C5.536875 17.51466797 5.7534375 18.38285156 5.9765625 19.27734375 C6.17330566 20.06359131 6.37004883 20.84983887 6.57275391 21.65991211 C7.02803371 24.15354461 7.07337949 26.47064805 7 29 C6.34 29 5.68 29 5 29 C4.72285156 27.72382812 4.44570313 26.44765625 4.16015625 25.1328125 C3.79441043 23.46351107 3.42851738 21.7942419 3.0625 20.125 C2.88009766 19.28324219 2.69769531 18.44148437 2.50976562 17.57421875 C2.33251953 16.76855469 2.15527344 15.96289062 1.97265625 15.1328125 C1.81031494 14.38918457 1.64797363 13.64555664 1.48071289 12.87939453 C1.05224081 10.92812876 1.05224081 10.92812876 0 9 C-0.06950541 7.45976004 -0.08452357 5.91665012 -0.0625 4.375 C-0.05347656 3.55773437 -0.04445313 2.74046875 -0.03515625 1.8984375 C-0.02355469 1.27195312 -0.01195312 0.64546875 0 0 Z " fill="#737373" transform="translate(723,821)"/>
<path d="M0 0 C-0.33 1.98 -0.66 3.96 -1 6 C-3.88211302 6.96070434 -5.69850044 7.10581883 -8.6875 7.0625 C-9.89986328 7.04896484 -9.89986328 7.04896484 -11.13671875 7.03515625 C-12.05904297 7.01775391 -12.05904297 7.01775391 -13 7 C-13 6.67 -13 6.34 -13 6 C-11.02 5.67 -9.04 5.34 -7 5 C-7 4.34 -7 3.68 -7 3 C-10.3 2.67 -13.6 2.34 -17 2 C-17 1.67 -17 1.34 -17 1 C-14.9168207 0.83141902 -12.83344956 0.66520745 -10.75 0.5 C-9.58984375 0.4071875 -8.4296875 0.314375 -7.234375 0.21875 C-4.82731342 0.05595356 -2.41256049 0 0 0 Z " fill="#2A2A2A" transform="translate(561,592)"/>
<path d="M0 0 C0.66 0.33 1.32 0.66 2 1 C1.45730469 1.50789063 0.91460938 2.01578125 0.35546875 2.5390625 C-3.71094239 6.45160944 -6.89477656 9.7369414 -9 15 C-9.66 15 -10.32 15 -11 15 C-11.33 17.97 -11.66 20.94 -12 24 C-13.32 24 -14.64 24 -16 24 C-14.19564067 14.40720356 -7.09757082 6.26798462 0 0 Z " fill="#727272" transform="translate(727,268)"/>
<path d="M0 0 C3.42200752 6.39766623 4.16435165 11.38771484 4.25 18.625 C4.27578125 19.93726563 4.3015625 21.24953125 4.328125 22.6015625 C4 26 4 26 2.484375 27.9609375 C1.99453125 28.30382812 1.5046875 28.64671875 1 29 C1.165 28.38125 1.33 27.7625 1.5 27.125 C2.8617951 18.61378062 2.31183023 10.66547596 -2 3 C-4.0297742 1.6599308 -4.0297742 1.6599308 -6 1 C-4 0 -4 0 0 0 Z " fill="#787878" transform="translate(392,506)"/>
<path d="M0 0 C4.38889325 0.66498383 7.9811485 2.18757677 12 4 C9.50907189 5.24546405 8.58919267 4.7767578 6 4 C5.67 5.98 5.34 7.96 5 10 C0.07692308 5.69230769 0.07692308 5.69230769 -0.3125 2.1875 C-0.209375 1.465625 -0.10625 0.74375 0 0 Z " fill="#5A5A5A" transform="translate(468,275)"/>
<path d="M0 0 C1.19148936 20.53191489 1.19148936 20.53191489 1 30 C0.67 30 0.34 30 0 30 C-0.66 21.42 -1.32 12.84 -2 4 C-3.65 3.67 -5.3 3.34 -7 3 C-5.40442685 -0.19114631 -3.35905282 0 0 0 Z " fill="#9E9E9E" transform="translate(595,622)"/>
<path d="M0 0 C1.32 0.33 2.64 0.66 4 1 C3.01 1.721875 2.02 2.44375 1 3.1875 C-1.48675798 5.59837099 -1.9747921 6.79166409 -2.3984375 10.29296875 C-2.37714803 13.5467097 -2.2598234 16.75701902 -2 20 C-3.9375 20.5625 -3.9375 20.5625 -6 21 C-7 20 -7 20 -7.0625 16.9375 C-7.041875 15.968125 -7.02125 14.99875 -7 14 C-6.01 15.485 -6.01 15.485 -5 17 C-4.96261719 16.24074219 -4.92523437 15.48148437 -4.88671875 14.69921875 C-4.82097656 13.70535156 -4.75523437 12.71148437 -4.6875 11.6875 C-4.62949219 10.70136719 -4.57148437 9.71523438 -4.51171875 8.69921875 C-3.93837286 5.67492859 -3.24761486 4.97027421 -1 3 C-0.67 2.01 -0.34 1.02 0 0 Z " fill="#959595" transform="translate(763,426)"/>
<path d="M0 0 C2.66666667 1.33333333 5.33333333 2.66666667 8 4 C8 4.99 8 5.98 8 7 C-1.405 7.495 -1.405 7.495 -11 8 C-7.85426323 5.90284215 -5.98543749 5.47995441 -2.3125 4.875 C-1.31863281 4.70742188 -0.32476562 4.53984375 0.69921875 4.3671875 C1.45847656 4.24601562 2.21773438 4.12484375 3 4 C2.01 2.68 1.02 1.36 0 0 Z " fill="#6C6D6D" transform="translate(482,294)"/>
<path d="M0 0 C0 3.63 0 7.26 0 11 C-0.33 11 -0.66 11 -1 11 C-1.33 8.03 -1.66 5.06 -2 2 C-3.32 2.33 -4.64 2.66 -6 3 C-6 3.99 -6 4.98 -6 6 C-7.65 6 -9.3 6 -11 6 C-11.33 6.99 -11.66 7.98 -12 9 C-12.33 8.34 -12.66 7.68 -13 7 C-11.78741495 3.76643985 -10.98715542 2.99143695 -8 1 C-5.2133692 0.3033423 -2.88120712 0 0 0 Z " fill="#9F9F9F" transform="translate(521,477)"/>
<path d="M0 0 C0.66 0 1.32 0 2 0 C2.99 4.62 3.98 9.24 5 14 C3.68 14 2.36 14 1 14 C0.01 14.495 0.01 14.495 -1 15 C-0.67 10.05 -0.34 5.1 0 0 Z " fill="#C0C0C0" transform="translate(608,445)"/>
<path d="M0 0 C0 1.32 0 2.64 0 4 C-4.95 4.66 -9.9 5.32 -15 6 C-9.91633686 0.91633686 -7.10925487 -0.33066302 0 0 Z " fill="#9C9C9C" transform="translate(399,415)"/>
<path d="M0 0 C-1.13418698 6.12460971 -5.05573892 10.41612901 -9 15 C-10.32 14.67 -11.64 14.34 -13 14 C-12.51789063 13.61328125 -12.03578125 13.2265625 -11.5390625 12.828125 C-10.90742188 12.30734375 -10.27578125 11.7865625 -9.625 11.25 C-8.99851562 10.73953125 -8.37203125 10.2290625 -7.7265625 9.703125 C-5.91687682 7.91800519 -4.99882545 6.32050356 -4 4 C-4.99 3.67 -5.98 3.34 -7 3 C-3.375 0 -3.375 0 0 0 Z " fill="#6B6B6B" transform="translate(507,533)"/>
<path d="M0 0 C0 0.66 0 1.32 0 2 C-1.15757812 2.10957031 -2.31515625 2.21914063 -3.5078125 2.33203125 C-5.04693863 2.49157481 -6.58599779 2.65176539 -8.125 2.8125 C-8.88554687 2.88275391 -9.64609375 2.95300781 -10.4296875 3.02539062 C-15.27885424 3.54793014 -18.61160333 4.78036168 -23 7 C-25.375 6.6875 -25.375 6.6875 -27 6 C-21.55020203 2.6373587 -16.36348127 1.28379394 -10.125 0.1875 C-9.36324463 0.05174561 -8.60148926 -0.08400879 -7.81665039 -0.22387695 C-2.26780124 -1.13390062 -2.26780124 -1.13390062 0 0 Z " fill="#818181" transform="translate(412,392)"/>
<path d="M0 0 C5.43523084 -0.37920215 5.43523084 -0.37920215 8.1875 1.46875 C11.92634849 3.50434529 15.11999232 3.55636705 19.3125 3.6875 C20.05306641 3.72166016 20.79363281 3.75582031 21.55664062 3.79101562 C23.37058164 3.87293554 25.18526353 3.93815822 27 4 C27 4.33 27 4.66 27 5 C24.33305052 5.05455124 21.66724502 5.09393392 19 5.125 C17.88431641 5.15013672 17.88431641 5.15013672 16.74609375 5.17578125 C11.49451557 5.22144715 7.0483054 4.45712451 2 3 C2 2.34 2 1.68 2 1 C1.34 0.67 0.68 0.34 0 0 Z " fill="#E6E6E6" transform="translate(588,553)"/>
<path d="M0 0 C2.97 0.495 2.97 0.495 6 1 C5.125 5.875 5.125 5.875 4 7 C6.64 7.33 9.28 7.66 12 8 C8.3558226 10.4294516 6.28758728 10.16179575 2 10 C1.19032562 7.08517222 0.78154007 5.53886783 1.9375 2.6875 C2.288125 2.130625 2.63875 1.57375 3 1 C2.01 0.67 1.02 0.34 0 0 Z " fill="#696969" transform="translate(374,500)"/>
<path d="M0 0 C0.33 0 0.66 0 1 0 C1.70174756 3.24709194 2.38388069 6.49800252 3.0625 9.75 C3.26166016 10.67039062 3.46082031 11.59078125 3.66601562 12.5390625 C3.84970703 13.42851563 4.03339844 14.31796875 4.22265625 15.234375 C4.39547119 16.05131836 4.56828613 16.86826172 4.74633789 17.70996094 C5.01129884 20.10200494 4.73312703 21.72525071 4 24 C1.30415469 18.55771711 0.4935592 14.09953116 0.3125 8.0625 C0.27833984 7.28326172 0.24417969 6.50402344 0.20898438 5.70117188 C0.1273929 3.80125607 0.06200115 1.90065597 0 0 Z " fill="#747474" transform="translate(733,864)"/>
<path d="M0 0 C0 0.66 0 1.32 0 2 C-0.66 2 -1.32 2 -2 2 C-2.2475 2.61875 -2.495 3.2375 -2.75 3.875 C-4.2442984 6.41530728 -5.24781851 7.02864183 -8 8 C-10.33333333 8 -12.66666667 8 -15 8 C-13.58531689 7.03874097 -12.1681636 6.08111675 -10.75 5.125 C-9.96109375 4.59132813 -9.1721875 4.05765625 -8.359375 3.5078125 C-2.87046632 0 -2.87046632 0 0 0 Z " fill="#383838" transform="translate(497,675)"/>
<path d="M0 0 C1.9375 0.75 1.9375 0.75 4 2 C4.75 4.125 4.75 4.125 5 6 C4.1646875 6.3403125 4.1646875 6.3403125 3.3125 6.6875 C0.76981118 7.97748266 0.76981118 7.97748266 -1.5 10.6875 C-2.325 11.450625 -3.15 12.21375 -4 13 C-6.3125 12.8125 -6.3125 12.8125 -8 12 C-4.80009492 9.25722422 -1.99500618 7.3697164 2 6 C1.34 4.02 0.68 2.04 0 0 Z " fill="#474747" transform="translate(601,666)"/>
<path d="M0 0 C3.96 0 7.92 0 12 0 C12 1.65 12 3.3 12 5 C13.32 5.33 14.64 5.66 16 6 C12.77208445 8.1519437 11.71599191 8.20086443 8 8 C8 6.35 8 4.7 8 3 C8.66 3 9.32 3 10 3 C10 2.34 10 1.68 10 1 C6.7 1 3.4 1 0 1 C0 0.67 0 0.34 0 0 Z " fill="#808080" transform="translate(620,503)"/>
<path d="M0 0 C1.32 0.66 2.64 1.32 4 2 C4.36666667 7.5 4.36666667 7.5 2.625 9.875 C1 11 1 11 -1 11 C-0.67 11.99 -0.34 12.98 0 14 C-0.99 14 -1.98 14 -3 14 C-3 11.69 -3 9.38 -3 7 C-1.35 6.67 0.3 6.34 2 6 C1.49396008 3.83125748 1.00016187 2.00032373 0 0 Z " fill="#C9C9C9" transform="translate(452,557)"/>
<path d="M0 0 C1.32 0.33 2.64 0.66 4 1 C4 1.99 4 2.98 4 4 C1.3122562 3.85790331 -1.37513302 3.7114277 -4.0625 3.5625 C-4.81466797 3.52318359 -5.56683594 3.48386719 -6.34179688 3.44335938 C-10.94698741 3.18419281 -15.44366724 2.7200579 -20 2 C-20 1.67 -20 1.34 -20 1 C-13.23405981 0.88618045 -6.71162938 1.11978631 0 2 C0 1.34 0 0.68 0 0 Z " fill="#BDBDBD" transform="translate(640,494)"/>
<path d="M0 0 C0.44730469 0.44472656 0.89460938 0.88945313 1.35546875 1.34765625 C3.17670143 3.05239217 4.92770506 4.60847964 7 6 C9.85945818 6.05050452 9.85945818 6.05050452 12 5 C12.33 6.32 12.66 7.64 13 9 C12.01 9.66 11.02 10.32 10 11 C8.70145279 9.92492371 7.41141639 8.83956264 6.125 7.75 C5.40570313 7.14671875 4.68640625 6.5434375 3.9453125 5.921875 C2.02947882 4.02912366 1.03550955 2.46342273 0 0 Z " fill="#717171" transform="translate(412,588)"/>
<path d="M0 0 C2.97 0.495 2.97 0.495 6 1 C6 1.33 6 1.66 6 2 C9.63 2.33 13.26 2.66 17 3 C17 3.33 17 3.66 17 4 C8.09 4.99 8.09 4.99 -1 6 C-0.67 4.02 -0.34 2.04 0 0 Z " fill="#242424" transform="translate(632,503)"/>
<path d="M0 0 C0.33 2.31 0.66 4.62 1 7 C0.51080078 6.01773437 0.51080078 6.01773437 0.01171875 5.015625 C-1.97680378 2.5988175 -1.97680378 2.5988175 -5.79296875 2.609375 C-7.25832231 2.63589724 -8.72341551 2.68350883 -10.1875 2.75 C-10.93708984 2.76804687 -11.68667969 2.78609375 -12.45898438 2.8046875 C-14.3065371 2.85175891 -16.15343159 2.92350234 -18 3 C-15.35938316 0.35938316 -13.80411139 0.61787532 -10.125 0.375 C-9.07570313 0.30023438 -8.02640625 0.22546875 -6.9453125 0.1484375 C-4.63261485 0.03188245 -2.31563285 0 0 0 Z " fill="#A4A4A4" transform="translate(496,499)"/>
<path d="M0 0 C1.65 0.33 3.3 0.66 5 1 C6.8125 4.0625 6.8125 4.0625 8 7 C5 6 5 6 2 3 C1.34 6.96 0.68 10.92 0 15 C-0.33 15 -0.66 15 -1 15 C-0.67 10.05 -0.34 5.1 0 0 Z " fill="#818181" transform="translate(724,545)"/>
<path d="M0 0 C5.28497409 0.0880829 5.28497409 0.0880829 8 1 C9.94583442 3.22381076 10.79889012 5.24745652 12 8 C9.125 8.125 9.125 8.125 6 8 C5.34 7.34 4.68 6.68 4 6 C4.99 6 5.98 6 7 6 C7 5.34 7 4.68 7 4 C6.21625 3.71125 5.4325 3.4225 4.625 3.125 C2 2 2 2 0 0 Z " fill="#6D6D6D" transform="translate(598,281)"/>
<path d="M0 0 C0.33 0 0.66 0 1 0 C1.50449402 2.58252893 2.00374301 5.16588703 2.5 7.75 C2.71462891 8.84441406 2.71462891 8.84441406 2.93359375 9.9609375 C3.58888879 13.39343532 4 16.49169491 4 20 C2.68 20 1.36 20 0 20 C0 13.4 0 6.8 0 0 Z " fill="#878787" transform="translate(738,888)"/>
<path d="M0 0 C0.33 5.28 0.66 10.56 1 16 C0.34 15.67 -0.32 15.34 -1 15 C-1.6328125 12.05859375 -1.6328125 12.05859375 -2.125 8.4375 C-2.29257812 7.23996094 -2.46015625 6.04242188 -2.6328125 4.80859375 C-2.75398437 3.88175781 -2.87515625 2.95492188 -3 2 C-4.32 1.67 -5.64 1.34 -7 1 C-4 0 -4 0 0 0 Z " fill="#C1C1C1" transform="translate(520,494)"/>
<path d="M0 0 C0.33 0 0.66 0 1 0 C1.33 7.92 1.66 15.84 2 24 C0.68 23.34 -0.64 22.68 -2 22 C-2 21.01 -2 20.02 -2 19 C-1.34 19 -0.68 19 0 19 C0 12.73 0 6.46 0 0 Z " fill="#2B2B2B" transform="translate(504,497)"/>
<path d="M0 0 C4.41321732 1.38790227 6.62263266 3.39803164 9.625 6.875 C10.38039063 7.73867188 11.13578125 8.60234375 11.9140625 9.4921875 C13.68213183 11.61784389 15.36994102 13.76775363 17 16 C13.68997304 14.56246045 11.56110536 12.77516456 9.0625 10.1875 C8.37285156 9.47851562 7.68320312 8.76953125 6.97265625 8.0390625 C6.32167969 7.36617187 5.67070312 6.69328125 5 6 C4.00202097 5.01877362 3.00240607 4.03920335 2 3.0625 C0 1 0 1 0 0 Z " fill="#808080" transform="translate(427,585)"/>
<path d="M0 0 C0.66 0.33 1.32 0.66 2 1 C-3.75 4 -3.75 4 -6 4 C-6.33 5.32 -6.66 6.64 -7 8 C-9.64 7.67 -12.28 7.34 -15 7 C-12.0356239 5.02374927 -9.21212254 3.70113094 -5.9375 2.3125 C-4.87402344 1.85488281 -3.81054688 1.39726563 -2.71484375 0.92578125 C-1.81894531 0.62027344 -0.92304687 0.31476562 0 0 Z " fill="#636363" transform="translate(520,664)"/>
<path d="M0 0 C0.99 0.33 1.98 0.66 3 1 C3 4.63 3 8.26 3 12 C2.01 12 1.02 12 0 12 C0 8.04 0 4.08 0 0 Z " fill="#1A1A1A" transform="translate(596,642)"/>
<path d="M0 0 C0.33 1.32 0.66 2.64 1 4 C-2.63 5.32 -6.26 6.64 -10 8 C-10.33 7.34 -10.66 6.68 -11 6 C-9.54550599 4.9944239 -8.08627557 3.99569565 -6.625 3 C-5.40683594 2.1646875 -5.40683594 2.1646875 -4.1640625 1.3125 C-2 0 -2 0 0 0 Z " fill="#151515" transform="translate(634,605)"/>
<path d="M0 0 C1.98 0.66 3.96 1.32 6 2 C6 2.66 6 3.32 6 4 C11.445 5.485 11.445 5.485 17 7 C16.01 7.99 15.02 8.98 14 10 C13.67 9.34 13.34 8.68 13 8 C10.88153715 7.31270746 10.88153715 7.31270746 8.4375 6.875 C7.61121094 6.70742188 6.78492188 6.53984375 5.93359375 6.3671875 C5.29550781 6.24601563 4.65742187 6.12484375 4 6 C4 5.01 4 4.02 4 3 C2.68 2.34 1.36 1.68 0 1 C0 0.67 0 0.34 0 0 Z " fill="#ABABAB" transform="translate(646,560)"/>
<path d="M0 0 C3.32983051 2.69557708 4.54451694 6.04940313 6 10 C6 11.32 6 12.64 6 14 C5.34 14 4.68 14 4 14 C3.32471777 12.42032193 2.66010306 10.83608097 2 9.25 C1.62875 8.36828125 1.2575 7.4865625 0.875 6.578125 C0 4 0 4 0 0 Z " fill="#666666" transform="translate(756,376)"/>
<path d="M0 0 C0.6875 1.8125 0.6875 1.8125 1 4 C-0.3125 5.4375 -0.3125 5.4375 -2 7 C-2.4021875 8.2065625 -2.4021875 8.2065625 -2.8125 9.4375 C-4.4260418 12.91935337 -6.7505677 14.09272452 -10 16 C-8.46891253 12.69162003 -6.55556247 9.83763435 -4.4375 6.875 C-2.03268334 3.54908252 -2.03268334 3.54908252 0 0 Z " fill="#6E6E6E" transform="translate(468,694)"/>
<path d="M0 0 C0 3 0 3 -1.20703125 4.64453125 C-3.43566363 6.32935791 -4.92093516 6.48702429 -7.6875 6.6875 C-8.49574219 6.75324219 -9.30398438 6.81898438 -10.13671875 6.88671875 C-11.05904297 6.94279297 -11.05904297 6.94279297 -12 7 C-12 7.66 -12 8.32 -12 9 C-12.66 9 -13.32 9 -14 9 C-13.67 7.68 -13.34 6.36 -13 5 C-10.03 5 -7.06 5 -4 5 C-4 4.34 -4 3.68 -4 3 C-2 1.375 -2 1.375 0 0 Z " fill="#575757" transform="translate(658,551)"/>
<path d="M0 0 C0 0.33 0 0.66 0 1 C-1.51980469 1.05607422 -1.51980469 1.05607422 -3.0703125 1.11328125 C-4.42190939 1.17898388 -5.77347029 1.24542971 -7.125 1.3125 C-8.12273438 1.34633789 -8.12273438 1.34633789 -9.140625 1.38085938 C-13.81983964 1.63316997 -16.87518256 2.91422121 -21 5 C-23.375 4.6875 -23.375 4.6875 -25 4 C-16.99305891 -0.98209668 -9.06833432 -0.40056446 0 0 Z " fill="#8D8D8D" transform="translate(754,263)"/>
<path d="M0 0 C-2.475 4.455 -2.475 4.455 -5 9 C-5.33 9 -5.66 9 -6 9 C-6 6.03 -6 3.06 -6 0 C-4 -1 -4 -1 0 0 Z " fill="#363636" transform="translate(601,622)"/>
<path d="M0 0 C4.87362847 0.45336079 7.39042389 1.7089159 11 5 C8.36 4.67 5.72 4.34 3 4 C2.67 4.66 2.34 5.32 2 6 C1.34 5.67 0.68 5.34 0 5 C0 3.35 0 1.7 0 0 Z " fill="#646464" transform="translate(752,478)"/>
<path d="M0 0 C0.66 0.33 1.32 0.66 2 1 C1.505 1.391875 1.01 1.78375 0.5 2.1875 C-1.27229454 3.93690736 -1.27229454 3.93690736 -1 6.5625 C-1 7.366875 -1 8.17125 -1 9 C-1.99 9.66 -2.98 10.32 -4 11 C-4.99 10.67 -5.98 10.34 -7 10 C-5.33248852 6.05860922 -2.77289351 3.2107188 0 0 Z " fill="#5D5D5D" transform="translate(373,406)"/>
<path d="M0 0 C2.97585836 2.70532578 4.76026096 5.20351397 5.30078125 9.25390625 C5.30464844 10.01574219 5.30851563 10.77757812 5.3125 11.5625 C5.32925781 12.32691406 5.34601562 13.09132813 5.36328125 13.87890625 C4.91796488 16.47897923 3.99996498 17.34831388 2 19 C2.10699219 18.33613281 2.21398437 17.67226563 2.32421875 16.98828125 C3.06297883 11.54687639 3.37626005 8.59171367 0 4 C0 2.68 0 1.36 0 0 Z " fill="#8A8A8A" transform="translate(767,405)"/>
<path d="M0 0 C4.33304076 0.64465202 7.86672065 2.18925122 11.8125 4.0625 C12.97394531 4.61035156 14.13539063 5.15820312 15.33203125 5.72265625 C16.21246094 6.14417969 17.09289062 6.56570313 18 7 C15 8 15 8 13.203125 7.29296875 C12.23632812 6.74576172 12.23632812 6.74576172 11.25 6.1875 C7.54429198 4.20425997 4.07108134 3.01777034 0 2 C0 1.34 0 0.68 0 0 Z " fill="#7B7B7B" transform="translate(719,351)"/>
<path d="M0 0 C1.51403812 4.84492197 0.36602172 8.2591011 -1 13 C-1.33 13 -1.66 13 -2 13 C-2 9.37 -2 5.74 -2 2 C-3.32 2.33 -4.64 2.66 -6 3 C-6 2.34 -6 1.68 -6 1 C-4 0 -4 0 0 0 Z " fill="#2D2D2D" transform="translate(523,475)"/>
<path d="M0 0 C0.66 0 1.32 0 2 0 C2 6.6 2 13.2 2 20 C1.67 20 1.34 20 1 20 C1 14.72 1 9.44 1 4 C0.34 4 -0.32 4 -1 4 C-1.33 4.66 -1.66 5.32 -2 6 C-1.49396008 3.83125748 -1.00016187 2.00032373 0 0 Z " fill="#636363" transform="translate(489,456)"/>
<path d="M0 0 C0.99 0 1.98 0 3 0 C3 1.65 3 3.3 3 5 C2.67 4.01 2.34 3.02 2 2 C-1.3566285 4.23775234 -1.57996014 4.93320048 -2.6875 8.625 C-2.93886719 9.44226563 -3.19023438 10.25953125 -3.44921875 11.1015625 C-3.63097656 11.72804688 -3.81273437 12.35453125 -4 13 C-4.33 13 -4.66 13 -5 13 C-5.50477602 7.69985182 -4.20817314 5.18034682 -1 1 C-0.67 0.67 -0.34 0.34 0 0 Z " fill="#595959" transform="translate(563,484)"/>
<path d="M0 0 C4.83628305 0.99043705 9.47618873 1.95698846 14 4 C14 4.33 14 4.66 14 5 C8.57960425 5.40652968 4.92984325 4.03993514 0 2 C0 1.34 0 0.68 0 0 Z " fill="#6D6D6D" transform="translate(614,269)"/>
<path d="M0 0 C5.94074887 1.00332648 10.20186518 2.30912706 15 6 C13 7 13 7 10.72265625 6.328125 C9.84480469 5.97234375 8.96695313 5.6165625 8.0625 5.25 C6.74958984 4.73179687 6.74958984 4.73179687 5.41015625 4.203125 C3.08729098 3.04357475 1.69089261 1.94201527 0 0 Z " fill="#E6E6E6" transform="translate(553,634)"/>
<path d="M0 0 C3.3 0 6.6 0 10 0 C9.67 0.66 9.34 1.32 9 2 C8.360625 2.12375 7.72125 2.2475 7.0625 2.375 C4.80148727 2.80939427 4.80148727 2.80939427 3.75 5.0625 C3.5025 5.701875 3.255 6.34125 3 7 C0 2.25 0 2.25 0 0 Z " fill="#A6A6A6" transform="translate(548,629)"/>
<path d="M0 0 C-0.33 1.65 -0.66 3.3 -1 5 C-1.99 5.33 -2.98 5.66 -4 6 C-4.66 4.02 -5.32 2.04 -6 0 C-3.50907189 -1.24546405 -2.58919267 -0.7767578 0 0 Z " fill="#1C1C1C" transform="translate(571,589)"/>
<path d="M0 0 C0.8125 1.625 0.8125 1.625 1 4 C-0.46818136 6.24609835 -2.15852858 8.02378677 -4 10 C-4.66 9.67 -5.32 9.34 -6 9 C-4.68775452 5.06326356 -3.08089673 2.77280706 0 0 Z " fill="#6B6B6B" transform="translate(479,478)"/>
<path d="M0 0 C0.99 0 1.98 0 3 0 C1.56835889 3.65938172 0.01065704 7.23988068 -1.625 10.8125 C-2.29402344 12.27623047 -2.29402344 12.27623047 -2.9765625 13.76953125 C-3.31429687 14.50558594 -3.65203125 15.24164063 -4 16 C-4.84291332 13.60996728 -5.15384404 12.4145692 -4.2578125 10 C-3.88398437 9.34 -3.51015625 8.68 -3.125 8 C-1.63630494 5.33492353 -0.62844826 2.99515767 0 0 Z " fill="#767676" transform="translate(715,314)"/>
<path d="M0 0 C1.98 0.99 1.98 0.99 4 2 C4 5.33333333 4 8.66666667 4 12 C0.81076967 7.81413519 -0.50423019 5.29441695 0 0 Z " fill="#494949" transform="translate(407,576)"/>
<path d="M0 0 C1.32 0 2.64 0 4 0 C3.49259538 4.39750672 0.91706686 6.86948922 -2 10 C-2.66 10 -3.32 10 -4 10 C-3.67 8.68 -3.34 7.36 -3 6 C-2.34 6 -1.68 6 -1 6 C0.10836423 4.11683841 0.10836423 4.11683841 1 2 C0.67 1.34 0.34 0.68 0 0 Z " fill="#363636" transform="translate(661,566)"/>
<path d="M0 0 C1.98 0.66 3.96 1.32 6 2 C6 2.33 6 2.66 6 3 C4.35 3 2.7 3 1 3 C1.05220703 3.90492188 1.05220703 3.90492188 1.10546875 4.828125 C1.14607422 6.02695312 1.14607422 6.02695312 1.1875 7.25 C1.22230469 8.03890625 1.25710938 8.8278125 1.29296875 9.640625 C1 12 1 12 -2 16 C-1.34 10.72 -0.68 5.44 0 0 Z " fill="#4F4F4F" transform="translate(448,561)"/>
<path d="M0 0 C3.96 0.33 7.92 0.66 12 1 C12 1.33 12 1.66 12 2 C7.545 2.495 7.545 2.495 3 3 C2.67 4.32 2.34 5.64 2 7 C1.34 6.34 0.68 5.68 0 5 C0 3.35 0 1.7 0 0 Z " fill="#535353" transform="translate(638,510)"/>
<path d="M0 0 C3.3 0.99 6.6 1.98 10 3 C10 2.01 10 1.02 10 0 C10.66 0 11.32 0 12 0 C11.67 1.65 11.34 3.3 11 5 C6.62886504 4.49172849 3.61004338 3.54826592 0 1 C0 0.67 0 0.34 0 0 Z " fill="#808080" transform="translate(660,628)"/>
<path d="M0 0 C1.1484375 1.734375 1.1484375 1.734375 2 4 C1.1015625 6.140625 1.1015625 6.140625 -0.375 8.25 C-0.85710938 8.95640625 -1.33921875 9.6628125 -1.8359375 10.390625 C-2.22007812 10.92171875 -2.60421875 11.4528125 -3 12 C-4 10 -4 10 -3.22265625 7.6171875 C-2.83980469 6.71226562 -2.45695313 5.80734375 -2.0625 4.875 C-1.68222656 3.96492187 -1.30195312 3.05484375 -0.91015625 2.1171875 C-0.60980469 1.41851563 -0.30945313 0.71984375 0 0 Z " fill="#4A4A4A" transform="translate(655,576)"/>
<path d="M0 0 C0.625 1.875 0.625 1.875 1 4 C0.34 4.66 -0.32 5.32 -1 6 C-1 5.01 -1 4.02 -1 3 C-1.66 3 -2.32 3 -3 3 C-3 3.66 -3 4.32 -3 5 C-5.375 6.6875 -5.375 6.6875 -8 8 C-8.66 7.67 -9.32 7.34 -10 7 C-6.25 4 -6.25 4 -4 4 C-3.67 3.01 -3.34 2.02 -3 1 C-2.01 0.67 -1.02 0.34 0 0 Z " fill="#8D8D8D" transform="translate(406,542)"/>
<path d="M0 0 C0.66 0.33 1.32 0.66 2 1 C1.20890398 2.27118864 0.41709922 3.54193623 -0.375 4.8125 C-0.81585937 5.52019531 -1.25671875 6.22789062 -1.7109375 6.95703125 C-2.78188476 8.65432039 -3.88676239 10.33014358 -5 12 C-5.3125 8.8125 -5.3125 8.8125 -5 5 C-2.5 2.0625 -2.5 2.0625 0 0 Z " fill="#747474" transform="translate(743,509)"/>
<path d="M0 0 C0.66 0.33 1.32 0.66 2 1 C-0.21928194 3.90802461 -1.92969143 5.95312762 -5 8 C-6.32 7.67 -7.64 7.34 -9 7 C-6.03 4.69 -3.06 2.38 0 0 Z " fill="#6D6D6D" transform="translate(426,344)"/>
<path d="M0 0 C2.97 0.33 5.94 0.66 9 1 C9.66 2.65 10.32 4.3 11 6 C7.2089881 4.55049545 3.6125362 2.84827434 0 1 C0 0.67 0 0.34 0 0 Z " fill="#666666" transform="translate(587,275)"/>
<path d="M0 0 C-0.33 0.66 -0.66 1.32 -1 2 C-3.64860427 2.59355614 -6.29197322 2.74209269 -9 3 C-8.67 2.01 -8.34 1.02 -8 0 C-5.04215769 -1.22393475 -3.00272755 -0.96516243 0 0 Z " fill="#909090" transform="translate(615,632)"/>
<path d="M0 0 C0.66 0.33 1.32 0.66 2 1 C1.67 2.65 1.34 4.3 1 6 C0.67 5.01 0.34 4.02 0 3 C-0.66 3 -1.32 3 -2 3 C-2.33 3.99 -2.66 4.98 -3 6 C-3.99 5.67 -4.98 5.34 -6 5 C-3.375 1.125 -3.375 1.125 0 0 Z " fill="#F1F1F1" transform="translate(643,542)"/>
<path d="M0 0 C3.61941735 1.50239966 6.7321794 2.82145293 10 5 C10 5.66 10 6.32 10 7 C6.12697862 5.85569823 2.99736561 4.76679902 0 2 C0 1.34 0 0.68 0 0 Z " fill="#737373" transform="translate(570,539)"/>
<path d="M0 0 C2.64 0 5.28 0 8 0 C6.02 0.99 6.02 0.99 4 2 C4 2.66 4 3.32 4 4 C4.66 4.33 5.32 4.66 6 5 C3.03 4.505 3.03 4.505 0 4 C0 2.68 0 1.36 0 0 Z " fill="#C5C5C5" transform="translate(580,498)"/>
<path d="M0 0 C0 0.99 0 1.98 0 3 C-3.375 3.125 -3.375 3.125 -7 3 C-7.66 2.34 -8.32 1.68 -9 1 C-6.04335481 -0.4783226 -3.25770263 -0.06032783 0 0 Z " fill="#0B0B0B" transform="translate(788,480)"/>
<path d="M0 0 C0.33 0 0.66 0 1 0 C1 3.96 1 7.92 1 12 C-1 10 -1 10 -1.5 7.4375 C-1.665 6.633125 -1.83 5.82875 -2 5 C-2.66 4.67 -3.32 4.34 -4 4 C-2.68 4 -1.36 4 0 4 C0 2.68 0 1.36 0 0 Z " fill="#3F3F3F" transform="translate(758,433)"/>
<path d="M0 0 C1.98 0 3.96 0 6 0 C5.67 0.66 5.34 1.32 5 2 C4.01 1.67 3.02 1.34 2 1 C2 2.32 2 3.64 2 5 C2.66 5 3.32 5 4 5 C3.67 5.66 3.34 6.32 3 7 C1.68 6.34 0.36 5.68 -1 5 C-0.67 3.35 -0.34 1.7 0 0 Z " fill="#141414" transform="translate(530,645)"/>
<path d="M0 0 C0.99 0.33 1.98 0.66 3 1 C3.6875 3.0625 3.6875 3.0625 4 5 C3.01 5 2.02 5 1 5 C0.67 5.66 0.34 6.32 0 7 C-0.99 5.68 -1.98 4.36 -3 3 C-2.34 3 -1.68 3 -1 3 C-0.67 2.01 -0.34 1.02 0 0 Z " fill="#373737" transform="translate(419,588)"/>
<path d="M0 0 C0.99 0.33 1.98 0.66 3 1 C3 3.64 3 6.28 3 9 C2.34 8.34 1.68 7.68 1 7 C0.01 7 -0.98 7 -2 7 C-1.34 4.69 -0.68 2.38 0 0 Z " fill="#E1E1E1" transform="translate(655,528)"/>
<path d="M0 0 C0.66 0 1.32 0 2 0 C1 4 1 4 0 8 C-0.99 8 -1.98 8 -3 8 C-1.125 1.125 -1.125 1.125 0 0 Z " fill="#CCCCCC" transform="translate(563,486)"/>
<path d="M0 0 C1.32 0.33 2.64 0.66 4 1 C2.5459375 2.3303125 2.5459375 2.3303125 1.0625 3.6875 C-1.60122242 6.32615209 -2.7731363 8.14331715 -3 12 C-3.33 12 -3.66 12 -4 12 C-4.37096774 6.43548387 -4.37096774 6.43548387 -2.5625 4.3125 C-1.7890625 3.6628125 -1.7890625 3.6628125 -1 3 C-0.67 2.01 -0.34 1.02 0 0 Z " fill="#797979" transform="translate(763,426)"/>
<path d="M0 0 C1.98 0 3.96 0 6 0 C4.68 1.65 3.36 3.3 2 5 C1.01 4.67 0.02 4.34 -1 4 C-0.67 2.68 -0.34 1.36 0 0 Z " fill="#E2E2E2" transform="translate(632,600)"/>
<path d="M0 0 C2.64 0.33 5.28 0.66 8 1 C8 1.33 8 1.66 8 2 C7.43410156 2.12117187 6.86820313 2.24234375 6.28515625 2.3671875 C5.18494141 2.61855469 5.18494141 2.61855469 4.0625 2.875 C3.33160156 3.03742187 2.60070312 3.19984375 1.84765625 3.3671875 C-0.20700294 3.82961523 -0.20700294 3.82961523 -1 6 C-1.66 5.67 -2.32 5.34 -3 5 C-3 4.01 -3 3.02 -3 2 C-2.01 2 -1.02 2 0 2 C0 1.34 0 0.68 0 0 Z " fill="#D2D2D2" transform="translate(647,526)"/>
<path d="M0 0 C0.89203125 0.00902344 1.7840625 0.01804687 2.703125 0.02734375 C3.37859375 0.03894531 4.0540625 0.05054688 4.75 0.0625 C4.75 0.3925 4.75 0.7225 4.75 1.0625 C2.11 1.0625 -0.53 1.0625 -3.25 1.0625 C-3.25 1.7225 -3.25 2.3825 -3.25 3.0625 C-5.56 3.0625 -7.87 3.0625 -10.25 3.0625 C-9.25 1.0625 -9.25 1.0625 -7.515625 0.44140625 C-4.96855716 0.01543111 -2.58143831 -0.03396629 0 0 Z " fill="#C6C6C6" transform="translate(645.25,506.9375)"/>
<path d="M0 0 C1.65 0 3.3 0 5 0 C5 0.99 5 1.98 5 3 C3.35 3 1.7 3 0 3 C-0.33 3.99 -0.66 4.98 -1 6 C-1.33 5.34 -1.66 4.68 -2 4 C-1.0625 1.875 -1.0625 1.875 0 0 Z " fill="#C3C3C3" transform="translate(510,480)"/>
<path d="M0 0 C1.32 0.66 2.64 1.32 4 2 C4 2.99 4 3.98 4 5 C1.69 5 -0.62 5 -3 5 C-2.34 4.67 -1.68 4.34 -1 4 C-0.34786708 1.97536745 -0.34786708 1.97536745 0 0 Z " fill="#1C1C1C" transform="translate(785,278)"/>
<path d="M0 0 C2.45823172 3.68734758 3.01242616 6.69699971 4 11 C2.68 10.34 1.36 9.68 0 9 C0 6.03 0 3.06 0 0 Z " fill="#1C1C1C" transform="translate(709,779)"/>
<path d="M0 0 C6.625 0.75 6.625 0.75 10 3 C7.03 3 4.06 3 1 3 C0.67 2.01 0.34 1.02 0 0 Z " fill="#606060" transform="translate(754,264)"/>
<path d="M0 0 C0.99 0.99 1.98 1.98 3 3 C0.53846154 7.8 0.53846154 7.8 -2.1875 8.8125 C-2.785625 8.874375 -3.38375 8.93625 -4 9 C-3.525625 8.62875 -3.05125 8.2575 -2.5625 7.875 C-0.47794198 5.37353038 -0.35378509 3.18406582 0 0 Z " fill="#2E2E2E" transform="translate(546,649)"/>
<path d="M0 0 C0.33 0 0.66 0 1 0 C1 2.64 1 5.28 1 8 C0.01 8.33 -0.98 8.66 -2 9 C-2 6.69 -2 4.38 -2 2 C-1.34 2 -0.68 2 0 2 C0 1.34 0 0.68 0 0 Z " fill="#DDDDDD" transform="translate(593,625)"/>
<path d="M0 0 C0.99 0 1.98 0 3 0 C3 0.66 3 1.32 3 2 C3.66 2.33 4.32 2.66 5 3 C3.35 3.66 1.7 4.32 0 5 C-0.66 4.01 -1.32 3.02 -2 2 C-1.34 1.34 -0.68 0.68 0 0 Z " fill="#2B2B2B" transform="translate(614,628)"/>
<path d="M0 0 C1.98 0.495 1.98 0.495 4 1 C4 1.99 4 2.98 4 4 C3.01 3.34 2.02 2.68 1 2 C1 3.65 1 5.3 1 7 C0.34 6.34 -0.32 5.68 -1 5 C-0.625 2.375 -0.625 2.375 0 0 Z " fill="#626262" transform="translate(560,516)"/>
<path d="M0 0 C0 0.66 0 1.32 0 2 C-4.15267176 5.11450382 -4.15267176 5.11450382 -7.3125 4.6875 C-7.869375 4.460625 -8.42625 4.23375 -9 4 C-2.25 0 -2.25 0 0 0 Z " fill="#676767" transform="translate(497,675)"/>
<path d="M0 0 C0.66 0.33 1.32 0.66 2 1 C0.71475739 1.86380259 -0.57842419 2.71580369 -1.875 3.5625 C-2.59429688 4.03816406 -3.31359375 4.51382813 -4.0546875 5.00390625 C-4.69664062 5.33261719 -5.33859375 5.66132812 -6 6 C-6.66 5.67 -7.32 5.34 -8 5 C-5.31158141 2.74754119 -3.35358125 1.11786042 0 0 Z " fill="#787878" transform="translate(638,633)"/>
<path d="M0 0 C0.33 0 0.66 0 1 0 C1.33 2.64 1.66 5.28 2 8 C0.68 8.33 -0.64 8.66 -2 9 C-2 8.01 -2 7.02 -2 6 C-1.34 6.33 -0.68 6.66 0 7 C0 4.69 0 2.38 0 0 Z " fill="#2A2A2A" transform="translate(574,524)"/>
<path d="M0 0 C0.33 2.31 0.66 4.62 1 7 C0.5875 6.38125 0.175 5.7625 -0.25 5.125 C-2.05573879 2.93231719 -3.4090534 2.07211583 -6 1 C-4 0 -4 0 0 0 Z " fill="#868686" transform="translate(392,506)"/>
<path d="M0 0 C0 2.97 0 5.94 0 9 C-0.33 9 -0.66 9 -1 9 C-1.33 6.69 -1.66 4.38 -2 2 C-3.32 1.67 -4.64 1.34 -6 1 C-3 0 -3 0 0 0 Z " fill="#D5D5D5" transform="translate(519,494)"/>
<path d="M0 0 C1.32 0.33 2.64 0.66 4 1 C4.33 2.32 4.66 3.64 5 5 C3.35 4.67 1.7 4.34 0 4 C0 2.68 0 1.36 0 0 Z " fill="#3E3E3E" transform="translate(337,490)"/>
<path d="M0 0 C0.185625 0.9590625 0.185625 0.9590625 0.375 1.9375 C0.684375 2.9584375 0.684375 2.9584375 1 4 C1.66 4.33 2.32 4.66 3 5 C2.01 5.99 1.02 6.98 0 8 C-2 5 -2 5 -2 3 C-1.34 3 -0.68 3 0 3 C0 2.01 0 1.02 0 0 Z " fill="#454545" transform="translate(706,335)"/>
<path d="M0 0 C0.33 0.66 0.66 1.32 1 2 C1.66 2 2.32 2 3 2 C3 3.32 3 4.64 3 6 C1.68 6 0.36 6 -1 6 C-0.67 4.02 -0.34 2.04 0 0 Z " fill="#444444" transform="translate(739,902)"/>
<path d="M0 0 C0.33 0.66 0.66 1.32 1 2 C0.01 2.66 -0.98 3.32 -2 4 C-3.19232613 6.05003955 -3.19232613 6.05003955 -4 8 C-4.66 8 -5.32 8 -6 8 C-4.73058503 4.08597051 -3.48832306 2.20927127 0 0 Z " fill="#7E7E7E" transform="translate(457,710)"/>
<path d="M0 0 C1.9375 0.75 1.9375 0.75 4 2 C4.75 4.125 4.75 4.125 5 6 C4.01 6.33 3.02 6.66 2 7 C1.34 4.69 0.68 2.38 0 0 Z " fill="#2D2D2D" transform="translate(601,666)"/>
<path d="M0 0 C0.33 0.99 0.66 1.98 1 3 C0.00390625 4.82421875 0.00390625 4.82421875 -1.4375 6.6875 C-1.91058594 7.31011719 -2.38367188 7.93273437 -2.87109375 8.57421875 C-3.24363281 9.04472656 -3.61617187 9.51523437 -4 10 C-4 5.75354935 -2.18249194 3.61475228 0 0 Z " fill="#8D8D8D" transform="translate(718,570)"/>
<path d="M0 0 C1.39195915 4.17587745 -0.17676781 6.13474776 -2 10 C-3.01136941 7.26930259 -3.04557718 6.13998707 -2.125 3.3125 C-1 1 -1 1 0 0 Z " fill="#7F7F7F" transform="translate(722,560)"/>
<path d="M0 0 C0.763125 0.0825 1.52625 0.165 2.3125 0.25 C0.3125 3.25 0.3125 3.25 -2.8125 3.9375 C-3.76125 4.040625 -4.71 4.14375 -5.6875 4.25 C-3.34903846 0.31153846 -3.34903846 0.31153846 0 0 Z " fill="#F3F3F3" transform="translate(633.6875,546.75)"/>
<path d="M0 0 C0 1.65 0 3.3 0 5 C-1.32 4.34 -2.64 3.68 -4 3 C-4.33 4.32 -4.66 5.64 -5 7 C-5.1875 4.625 -5.1875 4.625 -5 2 C-2 0 -2 0 0 0 Z " fill="#2C2C2C" transform="translate(446,538)"/>
<path d="M0 0 C0.33 1.32 0.66 2.64 1 4 C-0.65 5.32 -2.3 6.64 -4 8 C-4.66 7.67 -5.32 7.34 -6 7 C-4.02 4.69 -2.04 2.38 0 0 Z " fill="#7A7A7A" transform="translate(367,477)"/>
<path d="M0 0 C3.39914975 1.13304992 4.05254451 2.12518475 6 5 C5.67 5.66 5.34 6.32 5 7 C2.5 5.75 2.5 5.75 0 4 C0 2.68 0 1.36 0 0 Z " fill="#666666" transform="translate(750,369)"/>
<path d="" fill="#FEFEFE" transform="translate(0,0)"/>
<path d="" fill="#FEFEFE" transform="translate(0,0)"/>
</svg>
